<svg width="1520" height="1540" xmlns="http://www.w3.org/2000/svg" xmlns:xlink="http://www.w3.org/1999/xlink" xml:space="preserve" overflow="hidden"><defs><clipPath id="clip0"><rect x="955" y="185" width="1520" height="1540"/></clipPath></defs><g clip-path="url(#clip0)" transform="translate(-955 -185)"><path d="M1670.08 185.473C1713.51 184.013 1755.96 185.911 1798.22 191.457 1811.62 193.216 1825.08 194.959 1838.3 197.682 1841.54 198.349 1844.99 202.352 1846.65 205.666 1853.3 218.962 1859.11 232.674 1865.66 246.024 1866.92 248.62 1869.77 251.555 1872.41 252.204 1994.88 282.277 2102.73 339.805 2196.1 424.472 2235.7 460.386 2271.22 500.026 2301.66 544.06 2304.96 548.823 2308.69 551.184 2314.72 550.706 2327.92 549.659 2341.18 549.394 2354.37 548.297 2359.69 547.855 2362.84 549.148 2365.83 553.911 2405.51 617.424 2436.5 684.836 2456.05 757.212 2463.15 783.547 2468.16 810.443 2474.56 836.982 2475.8 842.214 2474.38 845.294 2470.66 848.454 2460.36 857.214 2450.39 866.383 2439.92 874.926 2435.76 878.323 2434.68 881.837 2434.94 887.023 2436.72 922.035 2439.29 957.058 2439.41 992.087 2439.52 1032.16 2434.6 1071.89 2427.31 1111.39 2416.41 1170.59 2398.11 1227.32 2373.43 1282.08 2369.46 1290.85 2364.15 1299.04 2360.65 1307.95 2359.21 1311.64 2359.56 1317.18 2361.33 1320.77 2366.81 1331.86 2372.95 1342.69 2379.68 1353.06 2383.68 1359.25 2382.57 1363.98 2379.2 1369.71 2350.83 1417.92 2318.23 1463.03 2280.57 1504.4 2218.11 1573.03 2145.88 1629.1 2063.68 1672.19 2023.83 1693.08 1982.62 1710.69 1939.7 1724.31 1934.77 1725.89 1931.98 1724.65 1928.77 1721.66 1918.83 1712.48 1908.73 1703.47 1898.82 1694.24 1895.3 1690.98 1892.09 1690.05 1886.99 1691.39 1829.36 1706.49 1770.81 1714.64 1711.11 1715.67 1658.69 1716.58 1606.83 1712.38 1555.48 1702.54 1531.96 1698.03 1508.77 1691.59 1485.65 1685.23 1479.8 1683.62 1475.89 1684.44 1471.29 1687.72 1459.39 1696.2 1447.39 1704.6 1435.02 1712.37 1432.08 1714.21 1426.97 1714.84 1423.74 1713.64 1325.8 1677.4 1238.21 1623.96 1161.6 1553.05 1077.15 1474.9 1013.1 1382.25 968.369 1276.21 965.758 1270.02 965.754 1265.42 970.416 1259.87 978.918 1249.74 986.685 1238.94 994.035 1227.93 995.966 1225.04 996.67 1219.89 995.535 1216.6 970.672 1144.56 957.458 1070.56 955.306 994.32 953.503 930.415 959.661 867.433 973.945 805.274 984.831 757.899 1000.35 711.962 1020.9 667.838 1023.28 662.711 1023.11 658.866 1020.16 654.075 1012.92 642.351 1005.97 630.421 999.605 618.209 998.045 615.22 997.771 610.121 999.265 607.195 1028.13 550.633 1064.13 498.906 1106.04 451.27 1170.36 378.15 1245.73 319.035 1332.08 274.051 1399.73 238.811 1470.99 213.878 1545.98 199.539 1586.75 191.743 1627.79 186.9 1670.08 185.473Z" fill="#FF5022" fill-rule="evenodd"/></g></svg>