<svg width="1805" height="1854" xmlns="http://www.w3.org/2000/svg" xmlns:xlink="http://www.w3.org/1999/xlink" xml:space="preserve" overflow="hidden"><defs><clipPath id="clip0"><rect x="3144" y="-224" width="1805" height="1854"/></clipPath></defs><g clip-path="url(#clip0)" transform="translate(-3144 224)"><path d="M476.869 1732.35C479.727 1731.68 482.084 1730.06 484.167 1727.59 493.692 1715.69 486.945 1704.98 460.356 1688.72 406.383 1656.2 330.583 1592.35 281.373 1538.01 240.893 1493.59 236.528 1486.45 239.702 1469.4 242.084 1457.9 240.099 1451.95 227.797 1432.91 201.604 1392.06 183.349 1357.56 151.203 1287.76 129.773 1241.36 92.4681 1118.01 84.9279 1068.83 82.5467 1052.57 79.3718 1046.63 65.8786 1034.73L49.6075 1020.05 49.6075 925.663C50.0042 822.15 52.3854 802.717 77.3876 699.998 142.075 436.259 331.377 211.388 580.604 103.116 688.946 56.3173 804.829 32.1245 921.505 31.7279 1030.24 31.7279 1163.59 57.507 1248.12 95.1837 1259.23 99.9431 1277.88 107.875 1289.79 113.031 1324.71 126.912 1410.83 180.453 1456.87 216.94 1529.1 273.257 1602.51 354.163 1654.9 434.276 1701.73 505.267 1750.54 614.332 1766.02 682.547 1776.34 725.38 1779.12 730.536 1793.4 728.949 1802.53 727.76 1803.72 725.777 1804.91 708.723 1807.69 665.89 1744.59 508.043 1694.98 433.483 1686.25 419.999 1678.71 408.101 1678.71 406.911 1678.71 403.738 1641.41 354.163 1616.01 323.625 1492.58 174.107 1324.71 69.8015 1129.06 20.2266 1060.01 2.7761 1029.85 0 921.902 0 827.053 0 813.163 0.793171 766.73 9.91499 533.774 55.5237 337.33 178.866 194.064 370.424 127.788 459.262 55.5602 615.919 39.6861 705.947 38.0985 715.862 32.9395 743.227 28.1771 767.023 15.8744 832.065 9.92144 924.473 15.0808 981.583 19.0493 1028.38 19.0493 1029.57 9.52481 1043.45 3.17482 1052.97 0 1062.89 0 1075.18 0 1108.1 36.9079 1243.34 59.9256 1295.29 63.8944 1304.02 70.641 1321.07 75.4031 1332.97 86.9121 1362.32 128.185 1439.26 151.997 1476.14L171.84 1506.68 192.873 1509.46C213.113 1511.84 215.494 1513.42 234.94 1536.43 269.864 1577.67 309.946 1617.33 353.601 1654.22 377.016 1673.65 396.859 1689.51 398.049 1689.51 399.24 1689.51 414.32 1699.43 431.385 1711.33 455.197 1727.98 468.293 1734.38 476.869 1732.35ZM903.545 1735.35C954.442 1736.1 1020.3 1732.38 1059.58 1725.54 1262.38 1690.24 1438.98 1581.57 1562.4 1416.19 1638.2 1315.06 1685.83 1201.63 1711.23 1064.01 1723.53 996.589 1723.53 867.297 1711.23 799.875 1700.11 739.196 1677.49 660.273 1660.82 622.596 1653.68 606.335 1644.16 584.522 1639.79 573.814 1635.03 563.502 1621.54 538.12 1609.23 517.497 1505.65 341.803 1332.62 207.753 1142.13 156.592 1066.73 136.365 1026.65 130.813 936.558 128.036 826.232 125.26 767.1 133.192 677.41 162.937 636.534 176.422 544.066 224.41 503.983 252.569 463.107 281.52 357.939 383.05 327.778 422.313 317.857 435.401 306.348 450.471 301.982 456.024 251.184 522.653 205.149 622.199 174.591 729.678 163.875 768.147 150.779 878.402 150.779 931.943 150.779 979.138 159.907 1065.99 169.035 1110.41 185.306 1186.96 232.532 1299.99 278.567 1372.17 315.078 1429.67 386.116 1510.18 442.47 1557.38 509.539 1613.7 614.31 1672.39 690.506 1696.59 735.351 1710.86 814.723 1727.92 859.171 1733.07 871.275 1734.36 886.579 1735.11 903.545 1735.35ZM886.984 1854C901.929 1854.02 917.952 1853.95 934.322 1853.75 1049.41 1852.95 1054.97 1852.56 1100.61 1841.85 1179.58 1823.61 1256.17 1797.03 1313.72 1768.08 1363.33 1743.1 1368.88 1741.11 1382.77 1744.29 1402.22 1748.65 1406.58 1746.67 1460.16 1708.59 1516.51 1668.93 1573.26 1616.58 1611.76 1570.18 1661.37 1509.5 1663.35 1506.33 1660.97 1490.07 1658.99 1478.56 1660.57 1473.01 1668.91 1462.3 1691.13 1432.16 1710.58 1397.66 1709.39 1390.12 1707.8 1380.21 1697.48 1373.47 1689.15 1376.64 1685.57 1377.83 1670.89 1396.87 1656.6 1418.68 1635.57 1450.8 1628.43 1458.73 1620.89 1458.73 1613.74 1458.73 1605.81 1465.87 1589.14 1488.48 1540.72 1554.32 1431.59 1653.47 1378.8 1680.04 1371.66 1683.61 1363.33 1691.94 1360.15 1698.28 1354.59 1710.18 1322.85 1728.42 1261.73 1754.6 1184.74 1787.52 1096.64 1810.12 1005.36 1820.04 960.911 1824.8 845.029 1822.81 808.518 1816.47 785.897 1812.5 777.563 1816.47 777.563 1831.54 777.563 1844.63 781.135 1847.8 801.375 1851.77 807.03 1852.95 842.152 1853.92 886.984 1854Z" fill="#FF5022" fill-rule="evenodd" transform="matrix(1 0 0 -1 3144 1630)"/></g></svg>