<svg width="89" height="477" xmlns="http://www.w3.org/2000/svg" xmlns:xlink="http://www.w3.org/1999/xlink" xml:space="preserve" overflow="hidden"><defs><clipPath id="clip0"><rect x="1340" y="691" width="89" height="477"/></clipPath></defs><g clip-path="url(#clip0)" transform="translate(-1340 -691)"><path d="M1390.5 691.5 1390.5 861.333" stroke="#FFFFFF" stroke-width="3.4375" stroke-linejoin="round" stroke-miterlimit="10" fill="none" fill-rule="evenodd"/><path d="M0 0 0.000360892 194.862" stroke="#FFFFFF" stroke-width="3.4375" stroke-linejoin="round" stroke-miterlimit="10" fill="none" fill-rule="evenodd" transform="matrix(1 0 0 -1 1390.5 1167.36)"/><path d="M1367.83 930.528C1367.7 940.556 1364.56 949.793 1359.84 958.106 1355.11 966.419 1358.66 958.898 1358.13 958.502 1354.33 955.731 1349.87 952.96 1344.49 949.661 1338.72 946.23 1338.33 943.064 1344.36 940.292 1353.41 936.07 1360.23 929.341 1365.21 921.555 1365.87 920.632 1367.31 920.896 1367.44 922.083 1367.83 924.986 1368.1 927.757 1367.97 930.528Z" fill="#FFFFFF" fill-rule="evenodd"/><path d="M1398.99 930.617C1398.73 948.41 1388.75 963.717 1377.05 975.622 1376.51 976.146 1375.58 976.146 1375.18 975.492 1372.39 971.305 1369.6 967.904 1366.4 964.894 1366.01 964.502 1365.87 963.848 1366.14 963.455 1371.99 953.774 1375.98 942.915 1376.25 930.879 1376.25 930.617 1376.25 930.225 1376.25 929.963 1376.25 922.898 1374.92 915.703 1372.26 908.507 1372.26 908.245 1372.26 907.984 1372.26 907.722 1374.92 900.526 1376.65 893.2 1377.84 886.397 1379.04 879.594 1379.31 884.958 1379.97 885.874 1392.87 901.05 1399.26 916.095 1398.99 930.879Z" fill="#FFFFFF" fill-rule="evenodd"/><path d="M1389.48 992.982C1389.22 993.114 1388.95 993.376 1388.69 993.508 1387.63 994.034 1386.56 994.165 1385.64 993.771 1384.57 993.508 1383.64 992.719 1383.11 991.536 1382.05 989.169 1380.99 986.934 1379.93 984.962 1378.87 982.989 1379.8 983.91 1380.19 983.515 1394 969.972 1406.2 951.959 1406.6 930.527 1406.6 930.264 1406.6 929.87 1406.6 929.607 1406.6 910.805 1397.45 891.74 1379.4 872.937 1379.13 872.674 1379 872.28 1379 872.017 1379.27 868.335 1379.53 865.048 1379.66 862.682 1379.66 860.446 1380.99 859.131 1382.45 859L1382.45 859C1382.72 859 1382.98 859 1383.38 859 1383.38 859 1383.38 859 1383.38 859 1384.04 859 1384.71 859.263 1385.24 859.789 1460.61 920.271 1422.66 968 1389.48 992.982Z" fill="#FFFFFF" fill-rule="evenodd"/></g></svg>