<svg width="556" height="1067" xmlns="http://www.w3.org/2000/svg" xmlns:xlink="http://www.w3.org/1999/xlink" xml:space="preserve" overflow="hidden"><defs><clipPath id="clip0"><rect x="2495" y="443" width="556" height="1067"/></clipPath></defs><g clip-path="url(#clip0)" transform="translate(-2495 -443)"><path d="M2698.61 466.149C2649.98 466.147 2602.15 466.045 2554.34 466.3 2549.33 466.326 2544.32 468.48 2537.48 470.073 2533.29 463.012 2527.98 454.069 2521.84 443.742 2526.1 443.47 2528.73 443.16 2531.33 443.158 2594.09 443.131 2656.84 443.226 2719.58 443 2725.92 442.979 2729.55 444.928 2732.74 450.471 2786.7 544.392 2840.85 638.2 2894.96 732.027 2898.13 737.518 2901.67 742.822 2904.5 748.476 2907.01 753.479 2910.09 755.303 2914.77 751.612 2919.73 747.71 2922.3 749.741 2925.02 754.482 2966.65 826.89 3008.45 899.195 3049.91 971.703 3051.5 974.485 3051.3 979.837 3049.66 982.691 3008.28 1054.92 2966.55 1126.93 2925.12 1199.13 2922.04 1204.5 2919.32 1206.01 2914.44 1202.18 2907.69 1196.87 2905.96 1202.99 2903.64 1207 2868.45 1267.85 2833.35 1328.75 2798.23 1389.63 2776.33 1427.59 2754.39 1465.52 2732.66 1503.57 2730 1508.22 2727.02 1510.01 2721.57 1510 2648.88 1509.82 2576.17 1509.88 2503.46 1509.86 2501.07 1509.86 2498.67 1509.54 2495 1509.27 2499.94 1502 2503.76 1495.31 2508.7 1489.61 2510.54 1487.5 2515.06 1486.99 2518.36 1486.98 2581.1 1486.83 2643.85 1486.77 2706.61 1487.03 2713.26 1487.05 2716.81 1485.01 2720.18 1479.15 2774.84 1384.05 2829.78 1289.1 2884.65 1194.11 2885.87 1191.99 2886.8 1189.71 2887.76 1187.71 2887.27 1186.88 2887.1 1186.23 2886.7 1186 2876.15 1179.86 2876.22 1179.9 2882.29 1169.38 2917.94 1107.54 2953.49 1045.64 2989.31 983.894 2992.34 978.646 2992.18 974.875 2989.17 969.692 2951.93 905.584 2914.94 841.331 2877.91 777.109 2877.51 776.42 2877.23 775.655 2876.62 774.277 2880.33 771.672 2884.06 769.059 2888.28 766.096 2875.7 744.342 2863.33 722.929 2850.95 701.512 2807.11 625.628 2763 549.894 2719.72 473.678 2714.08 463.74 2706.76 466.947 2698.61 466.149Z" fill="#FF5022" fill-rule="evenodd"/></g></svg>