<svg width="127" height="253" xmlns="http://www.w3.org/2000/svg" xmlns:xlink="http://www.w3.org/1999/xlink" xml:space="preserve" overflow="hidden"><g transform="translate(-140 -155)"><path d="M0 250.337C0 247.94 1.46474 247.807 45.0074 247.407 87.3516 247.008 90.2811 246.875 96.0068 244.212 104.396 240.217 111.054 234.092 116.114 225.303L120.508 217.713 120.907 189.75 121.44 161.787 117.312 157.925 113.184 153.931 113.184 111.853 113.184 69.7747 117.312 65.78 121.44 61.9184 120.907 48.4695C120.375 36.3521 119.842 34.3547 115.981 27.6968 111.054 18.9084 104.396 12.7832 96.0068 8.78842 90.2811 6.12526 87.3516 5.99211 45.0074 5.59263 1.46474 5.19316 0 5.06 0 2.66316 0 0.133158 1.33158 0 45.6732 0L91.2132 0 99.2026 3.86158C109.456 8.78842 117.845 17.1774 122.638 27.2974L126.5 35.2868 126.5 126.5 126.5 217.713 122.638 225.703C117.845 235.823 109.456 244.212 99.2026 249.138L91.2132 253 45.6732 253C1.33158 253 0 252.867 0 250.337Z" transform="matrix(1 0 0 -1 140.25 408)"/></g></svg>