<svg width="552" height="1067" xmlns="http://www.w3.org/2000/svg" xmlns:xlink="http://www.w3.org/1999/xlink" xml:space="preserve" overflow="hidden"><defs><clipPath id="clip0"><rect x="334" y="443" width="552" height="1067"/></clipPath></defs><g clip-path="url(#clip0)" transform="translate(-334 -443)"><path d="M604.548 1420.36C563.723 1349.7 523.174 1279.58 482.664 1209.44 477.349 1200.24 477.446 1200.18 463.439 1204.9 449.469 1180.74 435.423 1156.48 421.408 1132.21 393.305 1083.53 365.367 1034.76 336.966 986.26 332.926 979.361 333.077 974.302 337.031 967.5 378.013 897.003 418.717 826.342 459.347 755.642 462.494 750.167 465.19 747.473 471.236 752.153 477.545 757.039 479.288 750.542 481.371 746.954 503.911 708.121 526.286 669.193 548.696 630.286 583.074 570.603 617.512 510.956 651.713 451.174 655.135 445.19 659.069 442.967 666.072 443 727.096 443.296 788.124 443.172 849.149 443.172 851.866 443.172 854.58 443.172 859.177 443.172 853.785 452.611 849.118 460.78 844.985 468.013 838.625 467.323 833.371 466.27 828.113 466.256 778.961 466.13 729.807 466.373 680.659 465.986 672.842 465.925 668.401 467.983 664.389 474.981 609.299 571.082 553.883 666.996 498.56 762.961 498.036 763.869 497.688 764.874 497.053 766.291 500.807 768.92 504.356 771.406 508.639 774.405 499.483 790.431 490.449 806.386 481.28 822.262 452.619 871.888 423.962 921.517 395.12 971.041 392.548 975.457 392.805 978.806 395.266 983.049 432.721 1047.64 470.053 1112.3 507.394 1176.96 507.78 1177.63 507.909 1178.45 508.358 1179.8 504.752 1182.16 501.155 1184.51 496.748 1187.4 503.929 1200.05 511.003 1212.71 518.249 1225.26 567.137 1309.97 616.118 1394.62 664.843 1479.42 668.016 1484.95 671.39 1487.05 677.79 1487.02 737.988 1486.77 798.188 1487.11 858.38 1486.62 867.924 1486.55 874.072 1489.12 878.22 1497.56 880.107 1501.41 882.913 1504.8 886 1509.45 882.071 1509.63 879.4 1509.86 876.728 1509.86 805.763 1509.88 734.796 1509.81 663.829 1510 658.169 1510.02 654.88 1508.35 652.079 1503.38 636.505 1475.79 620.616 1448.37 604.548 1420.36Z" fill="#FF5022" fill-rule="evenodd"/></g></svg>