<?xml version="1.0" standalone="no"?>
<!DOCTYPE svg PUBLIC "-//W3C//DTD SVG 20010904//EN"
 "http://www.w3.org/TR/2001/REC-SVG-20010904/DTD/svg10.dtd">
<svg version="1.0" xmlns="http://www.w3.org/2000/svg"
 width="507.000000pt" height="1008.000000pt" viewBox="0 0 507.000000 1008.000000"
 preserveAspectRatio="xMidYMid meet">
<metadata>
Created by potrace 1.16, written by Peter Selinger 2001-2019
</metadata>
<g transform="translate(0.000000,1008.000000) scale(0.100000,-0.100000)"
fill="#000000" stroke="none">
<path d="M0 10000 c0 -80 0 -80 1558 -80 1545 0 1763 -4 1927 -35 151 -28 344
-98 490 -178 93 -50 215 -127 241 -151 7 -6 31 -26 55 -45 124 -97 295 -294
373 -431 20 -36 41 -72 46 -80 9 -13 58 -118 105 -225 14 -32 64 -208 86 -305
9 -41 13 -300 16 -1037 4 -983 4 -983 -151 -1140 -155 -158 -155 -158 -156
-1834 0 -1675 0 -1675 156 -1830 155 -154 155 -154 151 -559 -3 -258 -9 -425
-17 -460 -16 -74 -58 -230 -70 -255 -5 -11 -18 -45 -29 -75 -55 -151 -192
-381 -300 -504 -76 -86 -191 -193 -273 -254 -155 -116 -371 -226 -543 -276
-275 -81 -141 -76 -2012 -76 -1653 0 -1653 0 -1653 -85 0 -85 0 -85 1708 -85
940 0 1712 3 1716 7 4 4 49 15 99 24 139 25 260 62 388 118 176 76 395 210
483 294 133 127 185 179 216 218 19 24 46 56 60 71 103 114 215 319 303 554
24 63 64 224 72 288 4 31 11 59 16 62 12 7 12 6801 0 6808 -5 3 -12 36 -16 73
-4 38 -13 86 -20 108 -7 22 -20 67 -30 100 -9 33 -23 72 -31 87 -8 14 -14 33
-14 42 0 9 -4 24 -9 34 -6 9 -31 62 -56 117 -25 55 -69 136 -98 180 -45 71
-74 110 -160 218 -56 71 -246 251 -313 297 -20 14 -44 33 -55 42 -49 46 -293
173 -434 227 -87 34 -250 77 -327 87 -27 4 -51 11 -54 15 -3 5 -763 9 -1725 9
-1719 0 -1719 0 -1719 -80z"/>
</g>
</svg>
