<?xml version="1.0" encoding="UTF-8"?>
<svg xmlns="http://www.w3.org/2000/svg" xmlns:xlink="http://www.w3.org/1999/xlink" viewBox="0 0 213.04 429.61">
  <defs>
    <style>
      .cls-1 {
        fill: #5e465d;
      }

      .cls-2 {
        fill: url(#linear-gradient-2);
      }

      .cls-3 {
        fill: url(#linear-gradient-10);
      }

      .cls-4 {
        fill: #706f6f;
        mix-blend-mode: screen;
      }

      .cls-5 {
        fill: url(#linear-gradient-4);
      }

      .cls-6 {
        fill: url(#linear-gradient-3);
      }

      .cls-7 {
        fill: url(#linear-gradient-5);
      }

      .cls-8 {
        isolation: isolate;
      }

      .cls-9 {
        fill: url(#linear-gradient-8);
      }

      .cls-10 {
        fill: url(#linear-gradient-7);
      }

      .cls-11 {
        fill: url(#linear-gradient-9);
      }

      .cls-12 {
        mix-blend-mode: multiply;
      }

      .cls-13 {
        fill: url(#linear-gradient-11);
      }

      .cls-14 {
        fill: url(#linear-gradient-6);
      }

      .cls-15 {
        fill: #1d1d1b;
      }

      .cls-16 {
        fill: url(#linear-gradient);
      }
    </style>
    <linearGradient id="linear-gradient" x1="-469.34" y1="422.91" x2="-417.56" y2="422.91" gradientTransform="translate(634.72 579.1) rotate(90)" gradientUnits="userSpaceOnUse">
      <stop offset="0" stop-color="#68595f"/>
      <stop offset=".02" stop-color="#896e80"/>
      <stop offset=".04" stop-color="#5e3b5b"/>
      <stop offset=".08" stop-color="#2b1d2a"/>
      <stop offset=".11" stop-color="#704a6a"/>
      <stop offset=".9" stop-color="#615060"/>
      <stop offset=".94" stop-color="#2b1d2a"/>
      <stop offset=".96" stop-color="#5e3b5b"/>
      <stop offset=".98" stop-color="#845675"/>
      <stop offset="1" stop-color="#5b4a5c"/>
    </linearGradient>
    <linearGradient id="linear-gradient-2" x1="-469.33" y1="421.99" x2="-417.56" y2="421.99" gradientTransform="translate(634.72 579.1) rotate(90)" gradientUnits="userSpaceOnUse">
      <stop offset="0" stop-color="#676067"/>
      <stop offset=".06" stop-color="#654e63"/>
      <stop offset=".19" stop-color="#786f77"/>
      <stop offset=".81" stop-color="#786f77"/>
      <stop offset=".92" stop-color="#654e63"/>
      <stop offset="1" stop-color="#676067"/>
    </linearGradient>
    <linearGradient id="linear-gradient-3" x1="-480.24" y1="877.6" x2="-447.44" y2="877.6" gradientTransform="translate(-876.9 579.1) rotate(90) scale(1 -1)" gradientUnits="userSpaceOnUse">
      <stop offset="0" stop-color="#68595f"/>
      <stop offset=".02" stop-color="#896e80"/>
      <stop offset=".04" stop-color="#5e3b5b"/>
      <stop offset=".08" stop-color="#2d1e2c"/>
      <stop offset=".11" stop-color="#704a6a"/>
      <stop offset=".9" stop-color="#615060"/>
      <stop offset=".94" stop-color="#2d1e2c"/>
      <stop offset=".96" stop-color="#5e3b5b"/>
      <stop offset=".98" stop-color="#845675"/>
      <stop offset="1" stop-color="#5b4a5c"/>
    </linearGradient>
    <linearGradient id="linear-gradient-4" x1="-480.23" y1="877.08" x2="-447.44" y2="877.08" gradientTransform="translate(-876.9 579.1) rotate(90) scale(1 -1)" xlink:href="#linear-gradient-2"/>
    <linearGradient id="linear-gradient-5" x1="1.42" y1="131.68" x2="1.42" y2="98.87" gradientUnits="userSpaceOnUse">
      <stop offset="0" stop-color="#68595f"/>
      <stop offset=".05" stop-color="#2d1e2c"/>
      <stop offset=".52" stop-color="#5e3b5b"/>
      <stop offset=".96" stop-color="#2d1e2c"/>
      <stop offset="1" stop-color="#5b4a5c"/>
    </linearGradient>
    <linearGradient id="linear-gradient-6" x1="-438.97" x2="-406.17" xlink:href="#linear-gradient-3"/>
    <linearGradient id="linear-gradient-7" x1="-438.96" y1="877.08" x2="-406.17" y2="877.08" gradientTransform="translate(-876.9 579.1) rotate(90) scale(1 -1)" xlink:href="#linear-gradient-2"/>
    <linearGradient id="linear-gradient-8" y1="172.94" y2="140.14" xlink:href="#linear-gradient-5"/>
    <linearGradient id="linear-gradient-9" x1="-511.23" x2="-494.39" xlink:href="#linear-gradient-3"/>
    <linearGradient id="linear-gradient-10" x1="-511.22" y1="877.08" x2="-494.39" y2="877.08" gradientTransform="translate(-876.9 579.1) rotate(90) scale(1 -1)" xlink:href="#linear-gradient-2"/>
    <linearGradient id="linear-gradient-11" y1="84.72" x2="1.42" y2="67.88" xlink:href="#linear-gradient-5"/>
  </defs>
  <g class="cls-8">
    <g id="Camada_2" data-name="Camada 2">
      <g id="Layer_1" data-name="Layer 1" class="cls-12">
        <rect class="cls-1" x="1.8" width="209.4" height="429.61" rx="33.57" ry="33.57"/>
        <path class="cls-4" d="M177.37,1H35.63C17.5,1,2.8,15.7,2.8,33.83v361.94c0,18.13,14.7,32.83,32.83,32.83h141.74c18.13,0,32.83-14.7,32.83-32.83V33.83c0-18.13-14.7-32.83-32.83-32.83ZM209.2,395.51c0,17.73-14.37,32.1-32.1,32.1H35.9c-17.73,0-32.1-14.37-32.1-32.1V34.1C3.8,16.37,18.17,2,35.9,2h141.21c17.73,0,32.1,14.37,32.1,32.1v361.42Z"/>
        <rect class="cls-15" x="5.35" y="3.28" width="202.31" height="423.05" rx="30.87" ry="30.87"/>
        <g>
          <g>
            <rect class="cls-16" x="211.2" y="109.76" width="1.23" height="51.78"/>
            <path class="cls-2" d="M212.43,161.55v-51.77l.61.67c-.31,5.51-.29,44.92,0,50.42l-.61.67Z"/>
          </g>
          <g>
            <rect class="cls-6" x=".35" y="98.87" width=".7" height="32.8"/>
            <path class="cls-5" d="M.35,131.67v-32.79l-.35.43c.18,3.49.16,28.46,0,31.94l.35.43Z"/>
            <rect class="cls-7" x="1.05" y="98.87" width=".75" height="32.8"/>
          </g>
          <g>
            <rect class="cls-14" x=".35" y="140.13" width=".7" height="32.8"/>
            <path class="cls-10" d="M.35,172.93v-32.79l-.35.43c.18,3.49.16,28.46,0,31.94l.35.43Z"/>
            <rect class="cls-9" x="1.05" y="140.14" width=".75" height="32.8"/>
          </g>
          <g>
            <rect class="cls-11" x=".35" y="67.88" width=".7" height="16.84"/>
            <path class="cls-3" d="M.35,84.71v-16.83l-.35.4c.18,3.3.16,12.73,0,16.02l.35.4Z"/>
            <rect class="cls-13" x="1.05" y="67.88" width=".75" height="16.84"/>
          </g>
        </g>
      </g>
    </g>
  </g>
</svg>