<svg width="1224" height="2475" xmlns="http://www.w3.org/2000/svg" xml:space="preserve" overflow="hidden"><defs><clipPath id="a"><path d="M211 0h1224v2475H211z"/></clipPath></defs><g clip-path="url(#a)" transform="translate(-211)" fill-rule="evenodd"><path d="M217.707 807.684h3.353v189.354H212.677l-1.677-2.48c.771-20.092.855-164.243 0-184.391l1.677-2.483h5.03zm-5.03-237.948H221.06v189.353H212.677L211 756.607c.771-20.089.855-164.241 0-184.388l1.677-2.483zm0-177.624H221.06v97.19H212.677v-.057L211 486.934c.771-18.999.855-73.456 0-92.513l1.677-2.309zM419.466 18.867C321.177 18.867 241.5 98.49 241.5 196.71V2278.22c0 98.23 79.677 177.86 177.966 177.86h810.424c98.29 0 177.96-79.63 177.96-177.86V196.711c0-98.22-79.67-177.844-177.96-177.844H419.466zM414.604 0h820.146c106.89 0 193.54 86.588 193.54 193.399v440.013h6.71v298.274h-6.71V2281.61c0 106.81-86.65 193.39-193.54 193.39H414.604c-106.891 0-193.543-86.58-193.543-193.39V193.399C221.061 86.589 307.713 0 414.604 0z" fill="#1D1D1B"/><path d="M1232.5 6.82H417.174c-104.287 0-188.836 84.674-188.836 189.103V2280.72c0 104.42 84.549 189.1 188.836 189.1H1232.5c104.29 0 188.84-84.68 188.84-189.1V195.923c0-104.43-84.55-189.103-188.84-189.103zm183.09 2272.39c0 102.14-82.65 184.91-184.65 184.91H418.732c-101.991 0-184.647-82.77-184.647-184.91V197.478c0-102.126 82.656-184.898 184.647-184.898h812.258c102 0 184.65 82.773 184.65 184.898V2279.28z" fill="#706F6F"/></g></svg>