<svg width="2640" height="977" xmlns="http://www.w3.org/2000/svg" xmlns:xlink="http://www.w3.org/1999/xlink" xml:space="preserve" overflow="hidden"><defs><clipPath id="clip0"><rect x="-146" y="-1126" width="2640" height="977"/></clipPath></defs><g clip-path="url(#clip0)" transform="translate(146 1126)"><path d="M619.364 959.474 285.941 959.474 286.607 960.621 293.148 968.645 293.922 970.513C296.31 972.901 299.608 974.378 303.251 974.378L606.88 974.377C610.523 974.377 613.821 972.901 616.208 970.513L620.072 961.184ZM2621.42 451.389 2621.42 527.536 2635.86 502.68C2638.45 498.326 2639.88 494.419 2640 490.478L2639.61 489.17 2639.88 488.249C2639.76 484.308 2638.34 480.403 2635.75 476.05ZM2336.66 2.62399 2018.58 2.62399C2014.92 2.62399 2011.6 4.11103 2009.19 6.51485L2005.44 15.5663 2005.44 15.5663 2005.3 15.9074 2009.19 25.3C2011.6 27.7042 2014.92 29.1908 2018.58 29.1908L2154.35 29.1908 2109 75.3694 1974.53 75.3694 1942.9 51.9163 1939.1 50.9627 1934.51 49.0642 1825.06 49.0646C1822.78 49.0646 1820.72 49.9878 1819.23 51.481L1816.81 57.3151 1819.23 63.1493C1820.72 64.6424 1822.78 65.5661 1825.06 65.5661L1933.61 65.5664 1966.89 90.2445C1968.72 91.6013 1970.92 92.0882 1973.01 91.7781L1973.27 91.6273 1973.85 91.8709 2112.14 91.8712 2113.51 91.3021 2113.81 91.4212C2115.9 91.4024 2117.98 90.5867 2119.56 88.9787L2174.82 32.7067 2176.24 29.1912 2335.31 29.1912 2403.16 146.931C2429.38 191.652 2455.41 236.486 2481.23 281.444L2484 286.365 2485.63 292.169C2485.9 294.596 2485.96 297.131 2486.21 299.495 2486.21 300.046 2486.21 300.596 2486.22 301.147L2483.74 305.33C2482.07 307.091 2485.45 314.841 2487.86 319.042 2517.86 371.305 2547.73 423.656 2578.61 475.396L2583.01 489.202 2578.51 503.327C2547.63 555.055 2517.77 607.394 2487.77 659.646 2485.36 663.846 2481.99 671.594 2483.66 673.355L2486.3 677.812C2486.3 678.299 2486.29 678.785 2486.29 679.272 2486.04 681.638 2485.98 684.173 2485.71 686.6L2484.29 691.654 2481.15 697.236C2455.34 742.184 2429.31 787.009 2403.1 831.72L2333.17 949.794 2328.66 950.612 2033.12 950.612C2029.48 950.612 2026.18 952.089 2023.79 954.477L2021.72 959.473 2021.72 959.473 2019.93 963.806 2023.79 973.135C2026.18 975.523 2029.48 977 2033.12 977L2336.75 977C2340.39 977 2343.69 975.524 2346.08 973.136L2346.85 971.268 2353.39 963.244 2355.58 959.473 2355.58 959.473 2499.3 711.876 2503.87 702.82 2508.06 697.589 2511.97 695.412C2514.6 695.15 2517.94 695.922 2522.29 698.239L2573.46 610.06 2621.42 527.536 2621.42 451.389 2573.36 368.692 2522.2 280.533C2517.85 282.849 2514.51 283.621 2511.88 283.359L2508.42 281.429 2503.47 275.251 2503.19 274.761 2499.22 266.899C2450.23 183.341 2401.73 99.4952 2353.34 15.5869L2353.33 15.5663 2353.33 15.5663 2346.32 6.97287 2346.23 6.94905 2346.05 6.51485C2343.65 4.11103 2340.33 2.62399 2336.66 2.62399ZM621.416 0 303.34 0C299.673 0 296.352 1.48705 293.948 3.89086L293.768 4.32506 293.681 4.34889C290.902 6.33979 288.793 9.26408 286.658 12.9633L285.147 15.5663 285.147 15.5663 140.782 264.276 136.813 272.137 136.528 272.627 131.582 278.806 128.115 280.735C125.486 280.997 122.148 280.225 117.797 277.909L66.64 366.069 34.1001 422.065 4.25295 473.426C1.66487 477.779 0.237478 481.685 0.11513 485.625L0.389059 486.546 0 487.854C0.122348 491.796 1.5501 495.702 4.1389 500.056L34.1001 551.614 66.5393 607.437 117.708 695.616C122.059 693.299 125.399 692.527 128.028 692.789L131.939 694.966 136.127 700.197 140.698 709.252 285.941 959.473 619.364 959.473 616.208 951.854C613.821 949.466 610.523 947.99 606.88 947.99L311.34 947.99 306.828 947.171 236.903 829.097C210.689 784.385 184.661 739.561 158.854 694.613L155.711 689.031 154.291 683.977C154.017 681.55 153.959 679.014 153.706 676.649 153.705 676.162 153.704 675.675 153.703 675.189L156.34 670.732C158.007 668.971 154.635 661.223 152.225 657.023 122.23 604.771 92.3684 552.432 61.4916 500.704L56.9857 486.579 61.3898 472.772C92.2735 421.033 122.142 368.682 152.143 316.419 154.554 312.218 157.926 304.468 156.259 302.706L153.784 298.523C153.785 297.973 153.786 297.422 153.787 296.872 154.04 294.508 154.098 291.972 154.372 289.545L156.003 283.741 158.774 278.82C184.587 233.862 210.62 189.028 236.84 144.307L304.693 26.5676 463.759 26.5676 465.179 30.0831 520.443 86.3551C522.022 87.9631 524.104 88.7788 526.192 88.7975L526.487 88.6784 527.859 89.2476 666.147 89.2473 666.735 89.0036 666.988 89.1545C669.076 89.4645 671.283 88.9776 673.113 87.6209L706.391 62.9428 814.938 62.9424C817.217 62.9424 819.279 62.0188 820.773 60.5256L823.189 54.6915 820.772 48.8574C819.279 47.3642 817.217 46.4409 814.938 46.4409L705.486 46.4406 700.903 48.3391 697.096 49.2927 665.469 72.7458 530.998 72.7458 485.647 26.5672 621.416 26.5672C625.084 26.5672 628.405 25.0805 630.808 22.6764L633.754 15.5663 633.754 15.5663 634.699 13.2838 630.808 3.89086C628.405 1.48705 625.084 0 621.416 0Z" fill="#FFFFFF" fill-rule="evenodd" transform="matrix(-1 0 0 1 2494 -1126)"/><path d="M251.193 946 2321.57 946 2321.57 942.382 2390.67 826.438C2417.38 781.163 2443.9 735.774 2470.2 690.26L2473.4 684.607 2474.85 679.49C2475.13 677.032 2475.18 674.464 2475.44 672.069 2475.44 671.576 2475.44 671.083 2475.45 670.59L2474.6 669.164 2474.76 668.568C2475.04 666.11 2475.1 663.543 2475.36 661.149 2475.36 660.592 2475.36 660.034 2475.36 659.477L2474.36 657.784 2476.95 652.196C2507.52 599.286 2537.94 546.287 2569.41 493.907L2574 479.604 2572.31 474.329 2574 469.052 2569.41 454.749C2537.95 402.369 2507.52 349.37 2476.95 296.46L2474.36 290.87 2475.36 289.179C2475.36 288.621 2475.36 288.064 2475.36 287.507 2475.1 285.112 2475.04 282.545 2474.76 280.088L2474.6 279.493 2475.45 278.065C2475.44 277.572 2475.44 277.079 2475.44 276.586 2475.19 274.191 2475.13 271.624 2474.85 269.166L2473.4 264.049 2470.2 258.396C2443.9 212.882 2417.38 167.492 2390.67 122.217L2321.57 6.27276 2321.57 0.00109644 1985.46 0.00109644 1985.46 0 587.721 0 587.721 0.00109644 255.442 0.00109644 254.588 0 254.587 0.00109644 251.193 0.00109644 251.193 5.69566 183.334 119.561C156.623 164.836 130.101 210.226 103.804 255.74L100.601 261.392 99.1535 266.51C98.8744 268.967 98.8152 271.535 98.5581 273.93 98.557 274.423 98.5559 274.916 98.5548 275.409L99.4044 276.835 99.2355 277.431C98.9564 279.889 98.8972 282.456 98.6401 284.85 98.639 285.408 98.6376 285.965 98.6365 286.522L99.6445 288.215 97.0485 293.804C66.4845 346.714 36.0554 399.712 4.59225 452.092L0.000735525 466.395 1.69428 471.671 0 476.948 4.59151 491.251C36.0547 543.631 66.4837 596.629 97.0477 649.539L99.6445 655.129 98.6372 656.821C98.6383 657.378 98.6398 657.935 98.6409 658.493 98.8979 660.887 98.9572 663.454 99.2363 665.911L99.4044 666.506 98.5541 667.934C98.5552 668.427 98.5563 668.92 98.5574 669.413 98.8145 671.808 98.8737 674.376 99.1528 676.833L100.6 681.951 103.803 687.603C130.1 733.117 156.622 778.507 183.334 823.782L251.193 937.648Z" fill="#FFFFFF" fill-rule="evenodd" fill-opacity="0.168627" transform="matrix(1 -1.22465e-16 -1.22465e-16 -1 -117 -164)"/><path d="M742-174.999C742-181.075 746.925-186 753-186L1588-186C1594.08-186 1599-181.075 1599-174.999L1599-174.999C1599-168.924 1594.08-163.999 1588-163.999L753-164C746.925-164 742-168.925 742-175Z" fill="#FF5022" fill-rule="evenodd"/></g></svg>