<svg width="3122" height="563" xmlns="http://www.w3.org/2000/svg" xmlns:xlink="http://www.w3.org/1999/xlink" xml:space="preserve" overflow="hidden"><defs><clipPath id="clip0"><rect x="3030" y="1771" width="3122" height="563"/></clipPath></defs><g clip-path="url(#clip0)" transform="translate(-3030 -1771)"><path d="M5218.76 2322 5146.33 2322C5141.39 2322 5137 2317.61 5137 2312.67L5137 1959.85C5137 1954.91 5141.39 1950.52 5146.33 1950.52L5218.76 1950.52C5223.69 1950.52 5228.08 1954.91 5228.08 1959.85L5228.08 1967.53C5228.08 1975.76 5237.96 1979.6 5244 1974.12 5267.04 1951.07 5296.12 1939 5331.24 1939 5366.36 1939 5410.25 1952.17 5436.04 1979.06 5461.83 2005.94 5475 2043.26 5475 2091.54L5475 2312.12C5475 2317.06 5470.61 2321.45 5465.67 2321.45L5393.24 2321.45C5388.31 2321.45 5383.92 2317.06 5383.92 2312.12L5383.92 2106.36C5383.92 2080.57 5377.33 2060.81 5364.16 2047.1 5350.99 2033.38 5331.79 2026.24 5307.1 2026.24 5282.41 2026.24 5263.75 2033.93 5249.48 2048.74 5235.22 2063.56 5228.08 2082.76 5228.08 2106.36L5228.08 2312.12C5228.08 2317.06 5223.69 2321.45 5218.76 2321.45Z" fill="#FF4800" fill-rule="evenodd"/><path d="M5699.49 1940C5757.52 1940 5804.59 1960.8 5840.17 2002.4 5874.11 2041.81 5890.53 2090.52 5888.89 2147.45 5888.89 2152.37 5884.51 2156.21 5879.58 2156.21L5611.36 2156.21C5605.34 2156.21 5601.51 2161.68 5602.06 2167.15 5605.89 2189.05 5615.74 2207.11 5631.62 2221.34 5650.23 2237.76 5672.67 2245.97 5699.49 2245.97 5726.31 2245.97 5758.61 2232.83 5778.32 2206.01 5779.96 2203.82 5782.69 2202.18 5785.98 2202.18L5865.35 2202.18C5871.92 2202.18 5876.3 2208.75 5873.56 2214.77 5859.88 2247.61 5838.53 2274.98 5809.52 2296.33 5777.22 2320.41 5740 2333 5698.94 2333 5657.89 2333 5597.68 2314.39 5562.1 2277.17 5526.52 2239.95 5509 2193.43 5509 2137.05 5509 2080.67 5527.61 2035.24 5564.29 1997.47 5600.96 1959.16 5645.85 1940.55 5697.85 1940.55ZM5621.76 2094.9 5777.77 2094.9C5784.34 2094.9 5789.26 2087.79 5785.98 2081.76 5778.86 2068.08 5769.56 2056.04 5757.52 2046.19 5741.64 2033.05 5722.48 2026.48 5700.59 2026.48 5678.69 2026.48 5660.08 2033.05 5643.66 2045.64 5631.07 2055.49 5621.22 2067.53 5614.1 2081.76 5610.81 2087.79 5615.74 2094.9 5622.31 2094.9Z" fill="#FF4800" fill-rule="evenodd"/><path d="M6066.63 2177.27C6066.63 2212.91 6081.95 2231 6112.6 2231L6142.7 2231C6147.62 2231 6152 2235.38 6152 2240.32L6152 2312.68C6152 2317.61 6147.62 2322 6142.7 2322L6091.26 2322C6057.87 2322 6030.51 2311.58 6008.62 2290.75 5986.73 2269.92 5976.33 2243.61 5976.33 2211.81L5976.33 2051.19C5976.33 2046.25 5971.95 2041.87 5967.03 2041.87L5912.3 2041.87C5907.38 2041.87 5903 2037.48 5903 2032.55L5903 1960.18C5903 1955.25 5906.83 1951.41 5911.21 1950.86 5969.22 1947.57 6004.24 1910.85 6017.38 1840.67 6017.92 1836.29 6021.75 1833 6026.13 1833L6098.92 1833C6104.39 1833 6108.77 1837.93 6108.22 1843.42 6101.65 1881.79 6089.07 1912.49 6071.55 1936.06 6067.18 1942.09 6071.55 1950.86 6078.67 1950.86L6141.6 1950.86C6146.53 1950.86 6150.91 1955.25 6150.91 1960.18L6150.91 2032.55C6150.91 2037.48 6146.53 2041.87 6141.6 2041.87L6074.84 2041.87C6069.91 2041.87 6065.53 2046.25 6065.53 2051.19L6065.53 2177.82Z" fill="#FF4800" fill-rule="evenodd"/><path d="M4579.49 2102.15C4544.95 2092.28 4520.83 2082.96 4506.57 2074.19 4492.32 2065.97 4485.74 2056.1 4485.74 2045.69 4485.74 2035.28 4489.58 2030.34 4497.8 2024.86 4506.03 2018.83 4516.44 2016.09 4528.5 2016.09 4540.56 2016.09 4558.65 2019.93 4569.07 2028.15 4575.65 2033.63 4580.58 2039.66 4583.87 2046.24 4587.16 2053.36 4594.29 2058.3 4601.96 2058.3L4653.49 2058.3C4667.2 2058.3 4677.07 2044.59 4672.68 2031.99 4664.46 2008.97 4651.85 1989.23 4633.76 1973.34 4609.09 1951.41 4575.1 1941 4530.7 1941 4486.29 1941 4461.62 1951.41 4433.66 1971.69 4405.71 1991.98 4392 2019.93 4392 2054.46 4392 2110.92 4433.12 2149.83 4515.89 2172.31 4533.44 2177.79 4546.05 2181.62 4554.27 2184.36 4561.94 2187.11 4570.17 2191.49 4578.39 2197.52 4586.61 2203.55 4590.45 2210.67 4590.45 2218.9 4590.45 2227.12 4586.61 2238.08 4578.39 2245.21 4570.71 2252.33 4559.75 2255.62 4546.05 2255.62 4518.64 2255.62 4500 2245.75 4489.58 2225.47 4486.29 2218.9 4479.16 2214.51 4471.49 2214.51L4417.22 2214.51C4403.51 2214.51 4394.19 2227.67 4398.03 2240.82 4404.61 2261.65 4416.67 2280.83 4433.66 2297.82 4457.78 2321.94 4492.32 2334 4538.37 2334 4584.42 2334 4613.47 2323.04 4640.88 2301.66 4668.29 2279.74 4682 2250.69 4682 2213.96 4682 2161.34 4647.46 2124.07 4578.94 2103.24Z" fill="#FF4800" fill-rule="evenodd"/><path d="M5083.83 1950.37 5019.64 1950.37C5011.96 1950.37 5005.92 1956.4 5005.92 1964.07L5005.92 1984.35C5005.92 1985.99 5003.73 1986.54 5002.63 1985.44 4992.75 1972.29 4978.49 1961.88 4959.83 1953.66 4939.53 1944.34 4915.94 1940.5 4890.16 1941.05 4837.48 1941.6 4793.59 1960.78 4759.57 1998.05 4725.01 2035.32 4708 2083 4708 2140.54 4708.55 2198.63 4726.65 2245.22 4762.32 2280.84 4797.98 2316.46 4840.78 2334 4891.25 2334 4941.73 2334 4945.57 2327.97 4966.97 2315.91 4984.52 2306.05 4996.05 2296.19 5002.08 2285.77 5003.18 2284.13 5005.37 2284.68 5005.37 2286.87L5005.37 2309.34C5005.37 2317.01 5011.41 2323.04 5019.09 2323.04L5083.28 2323.04C5090.97 2323.04 5097 2317.01 5097 2309.34L5097 1965.17C5097 1957.49 5090.97 1951.46 5083.28 1951.46ZM5003.73 2143.28C5003.73 2169.59 4993.85 2192.6 4974.65 2211.79 4956.54 2229.87 4934.6 2239.19 4909.36 2240.83 4883.57 2241.93 4857.24 2233.71 4837.48 2216.17 4814.44 2196.44 4803.47 2169.59 4803.47 2136.16 4803.47 2102.72 4812.79 2081.35 4832 2061.62 4851.2 2041.89 4874.79 2032.03 4903.87 2032.03 4932.95 2032.03 4956.54 2041.34 4975.75 2059.98 4994.95 2078.61 5004.28 2102.18 5004.28 2130.13L5004.28 2142.18Z" fill="#FF4800" fill-rule="evenodd"/><path d="M4194.25 1950 4167.31 1950C4105.17 1950 4069.43 1993.83 4053.48 2020.13 4052.38 2021.77 4050.18 2021.22 4050.18 2019.03L4050.18 1963.7C4050.18 1956.03 4044.13 1950 4036.43 1950L3973.75 1950C3966.05 1950 3960 1956.03 3960 1963.7L3960 2308.3C3960 2315.97 3966.05 2322 3973.75 2322L4036.43 2322C4044.13 2322 4050.18 2315.97 4050.18 2308.3L4050.18 2137.37C4050.18 2040.4 4194.25 2038.75 4194.25 2038.75 4201.95 2038.75 4208 2032.73 4208 2025.06L4208 1963.7C4208 1956.03 4201.95 1950 4194.25 1950Z" fill="#FF4800" fill-rule="evenodd"/><path d="M3748.51 1940.26C3721.09 1939.71 3696.41 1945.19 3674.48 1956.69 3654.74 1967.1 3638.84 1979.15 3626.77 1992.84 3625.67 1993.94 3623.48 1992.84 3623.48 1991.75L3623.48 1894.25 3623.48 1894.25 3623.48 1783.6C3623.48 1777.57 3619.64 1773.19 3614.16 1771.55 3614.16 1771.55 3614.16 1771 3613.06 1771L3545.61 1771C3538.48 1771 3533 1776.48 3533 1783.6L3533 2307.8C3533 2315.47 3539.03 2321.5 3546.71 2321.5L3609.77 2321.5C3617.45 2321.5 3623.48 2315.47 3623.48 2307.8L3623.48 2280.42C3623.48 2278.77 3625.67 2278.22 3626.77 2279.32 3635.55 2292.47 3648.71 2303.97 3666.8 2314.92 3687.09 2326.98 3711.77 2333 3740.83 2333 3791.28 2333 3834.6 2314.38 3870.25 2276.58 3905.89 2239.33 3923.99 2191.68 3923.99 2135.26 3924.54 2077.2 3908.08 2030.64 3874.09 1994.49 3840.09 1958.88 3798.41 1940.81 3748.51 1940.26ZM3801.15 2213.04C3781.96 2232.76 3757.83 2242.62 3728.77 2242.62 3699.7 2242.62 3677.22 2233.31 3656.93 2214.14 3636.64 2194.97 3626.77 2171.41 3626.77 2143.48L3626.77 2131.97C3626.77 2102.94 3636.64 2078.29 3656.93 2059.67 3677.22 2040.5 3700.8 2031.19 3728.77 2031.19 3756.73 2031.19 3782.51 2041.05 3801.15 2060.22 3820.35 2079.39 3829.67 2105.13 3829.67 2136.9 3829.67 2168.67 3820.35 2194.42 3801.15 2213.59Z" fill="#FF4800" fill-rule="evenodd"/><path d="M4363 1963.7C4363 1956.03 4356.98 1950 4349.31 1950L4270.98 1950C4270.98 1950 4244.69 1950 4244.69 1950 4237.02 1950 4231 1956.03 4231 1963.7L4231 2025.06C4231 2032.73 4237.02 2038.75 4244.69 2038.75L4257.29 2038.75C4264.96 2038.75 4270.98 2044.78 4270.98 2052.45L4270.98 2308.3C4270.98 2315.97 4277.01 2322 4284.68 2322L4349.31 2322C4356.98 2322 4363 2315.97 4363 2308.3L4363 2301.18 4363 2301.18 4363 2031.63 4363 2031.63 4363 1963.7Z" fill="#FF4800" fill-rule="evenodd"/><path d="M4363 1829.5C4363 1861.81 4337.03 1888 4305 1888 4272.97 1888 4247 1861.81 4247 1829.5 4247 1797.19 4272.97 1771 4305 1771 4337.03 1771 4363 1797.19 4363 1829.5Z" fill="#FF4800" fill-rule="evenodd"/><path d="M3146.31 2068.74C3145.76 2110.56 3132.61 2149.09 3112.89 2183.76 3093.16 2218.43 3107.95 2187.06 3105.76 2185.41 3089.87 2173.85 3071.24 2162.3 3048.78 2148.54 3024.67 2134.23 3023.02 2121.02 3048.23 2109.46 3086.04 2091.85 3114.53 2063.79 3135.35 2031.32 3138.09 2027.46 3144.12 2028.57 3144.67 2033.52 3146.31 2045.63 3147.41 2057.18 3146.86 2068.74Z" fill="#FF4800" fill-rule="evenodd"/><path d="M3272.97 2069.17C3271.87 2143.6 3230.76 2207.62 3182.52 2257.42 3180.33 2259.61 3176.49 2259.61 3174.85 2256.87 3163.33 2239.36 3151.82 2225.13 3138.67 2212.55 3137.02 2210.91 3136.47 2208.17 3137.57 2206.53 3161.69 2166.03 3178.13 2120.61 3179.23 2070.27 3179.23 2069.17 3179.23 2067.53 3179.23 2066.44 3179.23 2036.89 3173.75 2006.79 3162.79 1976.69 3162.79 1975.6 3162.79 1974.5 3162.79 1973.41 3173.75 1943.31 3180.88 1912.66 3185.81 1884.21 3190.74 1855.75 3191.84 1878.19 3194.58 1882.02 3247.75 1945.5 3274.06 2008.43 3272.97 2070.27Z" fill="#FF4800" fill-rule="evenodd"/><path d="M3236.4 2329.75C3235.3 2330.3 3234.21 2331.4 3233.11 2331.95 3228.71 2334.14 3224.32 2334.69 3220.47 2333.04 3216.07 2331.95 3212.23 2328.66 3210.03 2323.72 3205.64 2313.85 3201.24 2304.53 3196.85 2296.31 3192.45 2288.08 3196.3 2291.92 3197.94 2290.27 3255.08 2233.8 3305.63 2158.67 3307.28 2069.29 3307.28 2068.2 3307.28 2066.55 3307.28 2065.46 3307.28 1987.04 3269.37 1907.54 3194.65 1829.12 3193.55 1828.03 3193 1826.38 3193 1825.29 3194.1 1809.93 3195.2 1796.22 3195.75 1786.35 3195.75 1777.03 3201.24 1771.55 3207.28 1771L3207.28 1771C3208.38 1771 3209.48 1771 3211.13 1771 3211.13 1771 3211.13 1771 3211.13 1771 3213.88 1771 3216.62 1772.1 3218.82 1774.29 3530.88 2026.52 3373.75 2225.57 3236.4 2329.75Z" fill="#FF4800" fill-rule="evenodd"/></g></svg>