<svg width="468" height="85" xmlns="http://www.w3.org/2000/svg" xmlns:xlink="http://www.w3.org/1999/xlink" xml:space="preserve" overflow="hidden"><defs><clipPath id="clip0"><rect x="2105" y="1020" width="468" height="85"/></clipPath></defs><g clip-path="url(#clip0)" transform="translate(-2105 -1020)"><path d="M2433.09 1103 2422.38 1103C2421.65 1103 2421 1102.35 2421 1101.61L2421 1049.1C2421 1048.37 2421.65 1047.71 2422.38 1047.71L2433.09 1047.71C2433.82 1047.71 2434.47 1048.37 2434.47 1049.1L2434.47 1050.25C2434.47 1051.47 2435.94 1052.04 2436.83 1051.23 2440.24 1047.8 2444.54 1046 2449.73 1046 2454.93 1046 2461.42 1047.96 2465.24 1051.96 2469.05 1055.96 2471 1061.52 2471 1068.7L2471 1101.53C2471 1102.27 2470.35 1102.92 2469.62 1102.92L2458.91 1102.92C2458.18 1102.92 2457.53 1102.27 2457.53 1101.53L2457.53 1070.91C2457.53 1067.07 2456.55 1064.13 2454.6 1062.09 2452.66 1060.05 2449.81 1058.98 2446.16 1058.98 2442.51 1058.98 2439.75 1060.13 2437.64 1062.33 2435.53 1064.54 2434.47 1067.4 2434.47 1070.91L2434.47 1101.53C2434.47 1102.27 2433.82 1102.92 2433.09 1102.92Z" fill="#FFFFFF" fill-rule="evenodd"/><path d="M2504.57 1046C2513.28 1046 2520.34 1049.12 2525.68 1055.37 2530.77 1061.28 2533.23 1068.6 2532.98 1077.14 2532.98 1077.88 2532.33 1078.46 2531.59 1078.46L2491.35 1078.46C2490.45 1078.46 2489.88 1079.28 2489.96 1080.1 2490.53 1083.39 2492.01 1086.1 2494.39 1088.24 2497.18 1090.7 2500.55 1091.93 2504.57 1091.93 2508.6 1091.93 2513.44 1089.96 2516.4 1085.94 2516.64 1085.61 2517.05 1085.36 2517.55 1085.36L2529.45 1085.36C2530.44 1085.36 2531.09 1086.35 2530.68 1087.25 2528.63 1092.18 2525.43 1096.29 2521.08 1099.49 2516.23 1103.11 2510.65 1105 2504.49 1105 2498.33 1105 2489.3 1102.21 2483.96 1096.62 2478.63 1091.03 2476 1084.05 2476 1075.58 2476 1067.12 2478.79 1060.3 2484.29 1054.63 2489.79 1048.88 2496.53 1046.08 2504.33 1046.08ZM2492.91 1069.25 2516.32 1069.25C2517.3 1069.25 2518.04 1068.19 2517.55 1067.28 2516.48 1065.23 2515.08 1063.42 2513.28 1061.94 2510.9 1059.97 2508.02 1058.98 2504.74 1058.98 2501.45 1058.98 2498.66 1059.97 2496.2 1061.86 2494.31 1063.34 2492.83 1065.15 2491.76 1067.28 2491.27 1068.19 2492.01 1069.25 2493 1069.25Z" fill="#FFFFFF" fill-rule="evenodd"/><path d="M2559.97 1081.39C2559.97 1086.71 2562.31 1089.41 2566.99 1089.41L2571.58 1089.41C2572.33 1089.41 2573 1090.07 2573 1090.81L2573 1101.61C2573 1102.35 2572.33 1103 2571.58 1103L2563.73 1103C2558.64 1103 2554.46 1101.45 2551.12 1098.34 2547.78 1095.23 2546.19 1091.3 2546.19 1086.55L2546.19 1062.57C2546.19 1061.84 2545.52 1061.18 2544.77 1061.18L2536.42 1061.18C2535.67 1061.18 2535 1060.53 2535 1059.79L2535 1048.99C2535 1048.25 2535.58 1047.68 2536.25 1047.6 2545.11 1047.1 2550.45 1041.62 2552.46 1031.15 2552.54 1030.49 2553.12 1030 2553.79 1030L2564.9 1030C2565.73 1030 2566.4 1030.74 2566.32 1031.55 2565.32 1037.28 2563.4 1041.87 2560.72 1045.39 2560.06 1046.29 2560.72 1047.6 2561.81 1047.6L2571.41 1047.6C2572.17 1047.6 2572.83 1048.25 2572.83 1048.99L2572.83 1059.79C2572.83 1060.53 2572.17 1061.18 2571.41 1061.18L2561.22 1061.18C2560.47 1061.18 2559.8 1061.84 2559.8 1062.57L2559.8 1081.48Z" fill="#FFFFFF" fill-rule="evenodd"/><path d="M2337.45 1070.19C2332.21 1068.71 2328.55 1067.31 2326.38 1066 2324.22 1064.76 2323.22 1063.28 2323.22 1061.72 2323.22 1060.15 2323.81 1059.41 2325.05 1058.59 2326.3 1057.68 2327.88 1057.27 2329.71 1057.27 2331.54 1057.27 2334.29 1057.85 2335.87 1059.08 2336.86 1059.91 2337.61 1060.81 2338.11 1061.8 2338.61 1062.87 2339.69 1063.61 2340.86 1063.61L2348.67 1063.61C2350.75 1063.61 2352.25 1061.55 2351.59 1059.66 2350.34 1056.2 2348.43 1053.24 2345.68 1050.85 2341.94 1047.56 2336.78 1046 2330.04 1046 2323.31 1046 2319.56 1047.56 2315.32 1050.61 2311.08 1053.65 2309 1057.85 2309 1063.03 2309 1071.51 2315.24 1077.35 2327.8 1080.73 2330.46 1081.55 2332.37 1082.12 2333.62 1082.54 2334.78 1082.95 2336.03 1083.61 2337.28 1084.51 2338.53 1085.42 2339.11 1086.49 2339.11 1087.72 2339.11 1088.95 2338.53 1090.6 2337.28 1091.67 2336.12 1092.74 2334.45 1093.23 2332.37 1093.23 2328.21 1093.23 2325.39 1091.75 2323.81 1088.71 2323.31 1087.72 2322.22 1087.06 2321.06 1087.06L2312.83 1087.06C2310.75 1087.06 2309.33 1089.04 2309.92 1091.01 2310.91 1094.14 2312.74 1097.02 2315.32 1099.57 2318.98 1103.19 2324.22 1105 2331.21 1105 2338.19 1105 2342.6 1103.35 2346.76 1100.15 2350.92 1096.85 2353 1092.49 2353 1086.98 2353 1079.08 2347.76 1073.48 2337.36 1070.36Z" fill="#FFFFFF" fill-rule="evenodd"/><path d="M2413 1047.41 2403.27 1047.41C2402.1 1047.41 2401.19 1048.31 2401.19 1049.46L2401.19 1052.51C2401.19 1052.75 2400.85 1052.84 2400.69 1052.67 2399.19 1050.7 2397.03 1049.13 2394.2 1047.9 2391.12 1046.5 2387.54 1045.93 2383.63 1046.01 2375.64 1046.09 2368.98 1048.97 2363.82 1054.56 2358.58 1060.16 2356 1067.32 2356 1075.96 2356.08 1084.68 2358.83 1091.67 2364.24 1097.02 2369.65 1102.37 2376.14 1105 2383.79 1105 2391.45 1105 2392.03 1104.1 2395.28 1102.29 2397.94 1100.8 2399.69 1099.32 2400.6 1097.76 2400.77 1097.51 2401.1 1097.6 2401.1 1097.92L2401.1 1101.3C2401.1 1102.45 2402.02 1103.35 2403.18 1103.35L2412.92 1103.35C2414.08 1103.35 2415 1102.45 2415 1101.3L2415 1049.63C2415 1048.48 2414.08 1047.57 2412.92 1047.57ZM2400.85 1076.37C2400.85 1080.32 2399.36 1083.77 2396.44 1086.65 2393.7 1089.37 2390.37 1090.77 2386.54 1091.01 2382.63 1091.18 2378.63 1089.94 2375.64 1087.31 2372.14 1084.35 2370.48 1080.32 2370.48 1075.3 2370.48 1070.28 2371.89 1067.07 2374.81 1064.11 2377.72 1061.15 2381.3 1059.67 2385.71 1059.67 2390.12 1059.67 2393.7 1061.06 2396.61 1063.86 2399.52 1066.66 2400.94 1070.2 2400.94 1074.39L2400.94 1076.2Z" fill="#FFFFFF" fill-rule="evenodd"/><path d="M2278.95 1047 2274.93 1047C2265.66 1047 2260.33 1053.6 2257.95 1057.56 2257.78 1057.8 2257.45 1057.72 2257.45 1057.39L2257.45 1049.06C2257.45 1047.91 2256.55 1047 2255.4 1047L2246.05 1047C2244.9 1047 2244 1047.91 2244 1049.06L2244 1100.94C2244 1102.09 2244.9 1103 2246.05 1103L2255.4 1103C2256.55 1103 2257.45 1102.09 2257.45 1100.94L2257.45 1075.21C2257.45 1060.61 2278.95 1060.36 2278.95 1060.36 2280.1 1060.36 2281 1059.45 2281 1058.3L2281 1049.06C2281 1047.91 2280.1 1047 2278.95 1047Z" fill="#FFFFFF" fill-rule="evenodd"/><path d="M2212.52 1045.6C2208.38 1045.52 2204.66 1046.34 2201.35 1048.08 2198.37 1049.66 2195.97 1051.48 2194.15 1053.55 2193.98 1053.72 2193.65 1053.55 2193.65 1053.39L2193.65 1038.64 2193.65 1038.64 2193.65 1021.91C2193.65 1020.99 2193.07 1020.33 2192.25 1020.08 2192.25 1020.08 2192.25 1020 2192.08 1020L2181.9 1020C2180.83 1020 2180 1020.83 2180 1021.91L2180 1101.19C2180 1102.35 2180.91 1103.26 2182.07 1103.26L2191.58 1103.26C2192.74 1103.26 2193.65 1102.35 2193.65 1101.19L2193.65 1097.05C2193.65 1096.8 2193.98 1096.72 2194.15 1096.88 2195.47 1098.87 2197.46 1100.61 2200.19 1102.27 2203.25 1104.09 2206.98 1105 2211.36 1105 2218.97 1105 2225.51 1102.18 2230.89 1096.47 2236.27 1090.83 2239 1083.63 2239 1075.09 2239.08 1066.31 2236.6 1059.27 2231.47 1053.8 2226.34 1048.42 2220.05 1045.68 2212.52 1045.6ZM2220.46 1086.86C2217.57 1089.84 2213.93 1091.33 2209.54 1091.33 2205.15 1091.33 2201.76 1089.92 2198.7 1087.02 2195.64 1084.12 2194.15 1080.56 2194.15 1076.34L2194.15 1074.6C2194.15 1070.2 2195.64 1066.48 2198.7 1063.66 2201.76 1060.76 2205.32 1059.35 2209.54 1059.35 2213.76 1059.35 2217.65 1060.84 2220.46 1063.74 2223.36 1066.64 2224.77 1070.54 2224.77 1075.34 2224.77 1080.15 2223.36 1084.04 2220.46 1086.94Z" fill="#FFFFFF" fill-rule="evenodd"/><path d="M2305 1049.06C2305 1047.91 2304.09 1047 2302.93 1047L2291.06 1047C2291.06 1047 2287.07 1047 2287.07 1047 2285.91 1047 2285 1047.91 2285 1049.06L2285 1058.3C2285 1059.45 2285.91 1060.36 2287.07 1060.36L2288.98 1060.36C2290.15 1060.36 2291.06 1061.27 2291.06 1062.42L2291.06 1100.94C2291.06 1102.09 2291.97 1103 2293.13 1103L2302.93 1103C2304.09 1103 2305 1102.09 2305 1100.94L2305 1099.87 2305 1099.87 2305 1059.29 2305 1059.29 2305 1049.06Z" fill="#FFFFFF" fill-rule="evenodd"/><path d="M2305 1029C2305 1033.97 2300.97 1038 2296 1038 2291.03 1038 2287 1033.97 2287 1029 2287 1024.03 2291.03 1020 2296 1020 2300.97 1020 2305 1024.03 2305 1029Z" fill="#FFFFFF" fill-rule="evenodd"/><path d="M2122.89 1065.04C2122.81 1071.4 2120.79 1077.26 2117.75 1082.53 2114.72 1087.8 2116.99 1083.03 2116.66 1082.78 2114.21 1081.02 2111.34 1079.27 2107.89 1077.18 2104.18 1075 2103.93 1072.99 2107.8 1071.23 2113.62 1068.56 2118 1064.29 2121.21 1059.35 2121.63 1058.77 2122.56 1058.93 2122.64 1059.69 2122.89 1061.53 2123.06 1063.29 2122.98 1065.04Z" fill="#FFFFFF" fill-rule="evenodd"/><path d="M2141 1064.7C2140.83 1075.79 2134.79 1085.34 2127.69 1092.76 2127.37 1093.09 2126.81 1093.09 2126.57 1092.68 2124.87 1090.07 2123.18 1087.95 2121.25 1086.07 2121 1085.83 2120.92 1085.42 2121.08 1085.18 2124.63 1079.14 2127.05 1072.37 2127.21 1064.86 2127.21 1064.7 2127.21 1064.45 2127.21 1064.29 2127.21 1059.88 2126.4 1055.4 2124.79 1050.91 2124.79 1050.74 2124.79 1050.58 2124.79 1050.42 2126.4 1045.93 2127.45 1041.36 2128.18 1037.12 2128.9 1032.88 2129.06 1036.22 2129.47 1036.79 2137.29 1046.26 2141.16 1055.64 2141 1064.86Z" fill="#FFFFFF" fill-rule="evenodd"/><path d="M2135.5 1104.36C2135.34 1104.44 2135.17 1104.61 2135.01 1104.69 2134.35 1105.02 2133.69 1105.1 2133.11 1104.86 2132.46 1104.69 2131.88 1104.19 2131.55 1103.45 2130.89 1101.96 2130.23 1100.55 2129.58 1099.31 2128.92 1098.07 2129.49 1098.65 2129.74 1098.4 2138.3 1089.87 2145.87 1078.53 2146.11 1065.04 2146.11 1064.87 2146.11 1064.62 2146.11 1064.46 2146.11 1052.62 2140.44 1040.61 2129.25 1028.78 2129.08 1028.61 2129 1028.36 2129 1028.2 2129.16 1025.88 2129.33 1023.81 2129.41 1022.32 2129.41 1020.91 2130.23 1020.08 2131.14 1020L2131.14 1020C2131.3 1020 2131.47 1020 2131.71 1020 2131.71 1020 2131.71 1020 2131.71 1020 2132.13 1020 2132.54 1020.17 2132.87 1020.5 2179.6 1058.58 2156.07 1088.63 2135.5 1104.36Z" fill="#FFFFFF" fill-rule="evenodd"/></g></svg>