<svg width="443" height="176" xmlns="http://www.w3.org/2000/svg" xmlns:xlink="http://www.w3.org/1999/xlink" xml:space="preserve" overflow="hidden"><defs><clipPath id="clip0"><rect x="135" y="1554" width="443" height="176"/></clipPath></defs><g clip-path="url(#clip0)" transform="translate(-135 -1554)"><path d="M225.52 1648 272.481 1648C273.876 1648 275 1649.13 275 1650.51L275 1659.17C275 1660.56 273.87 1661.68 272.481 1661.68L236.706 1661.68 236.683 1677.2 272.481 1677.2C273.876 1677.2 275 1678.32 275 1679.71L275 1688.37C275 1689.76 273.87 1690.88 272.481 1690.88L236.663 1690.88 236.641 1706.32 272.481 1706.32C273.876 1706.32 275 1707.44 275 1708.83L275 1717.49C275 1718.88 273.87 1720 272.481 1720L234.326 1720 225.52 1720 225.299 1720C224.028 1720 223 1718.98 223 1717.71L223.001 1717.49 223 1717.49 223 1708.83 223.013 1708.76 223.043 1688.58 223 1688.37 223 1679.71 223.056 1679.43 223.085 1659.59 223 1659.17 223 1650.51C223 1650.16 223.071 1649.83 223.199 1649.53L223.274 1649.42 223.279 1649.4C223.628 1648.58 224.444 1648 225.397 1648L225.52 1648Z" fill="#2242D5" fill-rule="evenodd"/><path d="M414.468 1709.82C420.13 1709.91 423.166 1706.3 423.166 1699.49L423.166 1679.83C423.166 1678.82 423.984 1678 424.994 1678L432.172 1678C433.183 1678 434 1678.82 434 1679.83L434 1717.19C434 1718.2 433.183 1719.01 432.172 1719.01L425.518 1719.01C424.562 1719.01 423.768 1718.27 423.694 1717.32L423.41 1713.52C420.7 1717.78 416.516 1720 411.345 1720 401.416 1720 395.918 1714.01 396.001 1701.46L396.001 1679.83C396.001 1678.82 396.818 1678 397.829 1678L405.007 1678C406.017 1678 406.835 1678.82 406.835 1679.83L406.835 1699C406.835 1707.29 409.871 1709.75 414.468 1709.83Z" fill="#2242D5" fill-rule="evenodd"/><path d="M478.727 1707.21 471.547 1704.72C470.708 1704.43 469.744 1704.7 469.262 1705.44 467.415 1708.28 464.195 1710.04 460.574 1710.04 454.113 1710.04 449.634 1705.19 449.634 1698.29 449.634 1691.4 454.026 1686.55 460.4 1686.55 464.021 1686.55 467.242 1688.18 469.089 1690.81 469.576 1691.5 470.496 1691.75 471.297 1691.47L478.461 1688.96C479.59 1688.56 480.062 1687.26 479.483 1686.22 475.81 1679.67 468.756 1676 460.916 1676 447.474 1676 438 1685.28 438 1698.29 438 1709.52 445.15 1717.94 455.748 1720.07 456.032 1720.12 456.331 1720.17 456.63 1720.21 456.717 1720.65 456.731 1721.03 456.625 1721.34 456.5 1721.71 456.321 1722.04 456.1 1722.32 455.873 1722.61 455.733 1722.79 455.685 1722.88 454.851 1723.71 454.537 1724.5 454.745 1725.27L455.661 1728.62C455.796 1729.11 456.085 1729.48 456.534 1729.73 456.982 1729.99 457.416 1730.06 457.84 1729.95 460.169 1729.32 462.107 1727.95 463.65 1725.81 464.884 1724.1 465.386 1722.24 465.173 1720.24 471.417 1719.12 476.716 1715.5 479.763 1709.92 480.327 1708.89 479.845 1707.6 478.722 1707.21Z" fill="#2242D5" fill-rule="evenodd"/><path d="M328 1698C328 1685.07 337.12 1676 349.958 1676 362.795 1676 372 1685.07 372 1698 372 1710.93 362.964 1720 350.126 1720 337.289 1720 328 1710.93 328 1698ZM360.6 1698C360.6 1691.12 356.208 1686.25 349.958 1686.25 343.708 1686.25 339.4 1691.12 339.4 1698 339.4 1704.89 343.792 1709.75 350.126 1709.75 356.461 1709.75 360.6 1704.89 360.6 1698Z" fill="#2242D5" fill-rule="evenodd"/><path d="M283.062 1677 290.116 1677C290.973 1677 291.735 1677.53 292.041 1678.34L302.998 1707.53 313.954 1678.34C314.26 1677.53 315.022 1677 315.879 1677L322.938 1677C324.402 1677 325.399 1678.5 324.844 1679.88L309.13 1718.71C308.815 1719.49 308.061 1720 307.224 1720L298.776 1720C297.943 1720 297.19 1719.49 296.87 1718.71L281.156 1679.88C280.6 1678.5 281.598 1677 283.062 1677Z" fill="#2242D5" fill-rule="evenodd"/><path d="M380.921 1658 388.158 1658C389.176 1658 390 1658.88 390 1659.97L389.921 1718.03C389.921 1719.12 389.097 1720 388.079 1720L380.843 1720C379.824 1720 379 1719.12 379 1718.03L379.079 1659.97C379.079 1658.88 379.903 1658 380.921 1658Z" fill="#2242D5" fill-rule="evenodd"/><path d="M506.502 1685.79C503.175 1685.79 500.409 1686.9 498.205 1689.14 496 1691.37 494.897 1694.19 494.897 1697.59 494.897 1701.4 496.214 1704.44 498.855 1706.7 501.127 1708.65 504.154 1709.63 507.165 1709.48 510.132 1709.34 512.658 1708.25 514.744 1706.2 516.984 1703.99 518.103 1701.39 518.103 1698.39L518.107 1698.39 518.107 1696.99C518.107 1693.79 517.003 1691.12 514.799 1688.99 512.594 1686.85 509.829 1685.79 506.502 1685.79ZM505.073 1675.28C508.058 1675.21 510.738 1675.69 513.114 1676.73 515.248 1677.66 516.888 1678.87 518.036 1680.36 518.158 1680.52 518.41 1680.44 518.41 1680.24L518.41 1677.95C518.41 1677.08 519.124 1676.38 520.005 1676.38L527.402 1676.38 527.405 1676.38C528.285 1676.38 529 1677.08 529 1677.94L529 1717.13C529 1718 528.285 1718.7 527.405 1718.7L520.008 1718.7C519.127 1718.7 518.413 1718 518.413 1717.13L518.413 1714.59C518.413 1714.38 518.135 1714.31 518.024 1714.49 517.296 1715.68 515.934 1716.83 513.934 1717.95 511.491 1719.32 508.572 1720 505.178 1720 499.34 1720 494.367 1717.98 490.262 1713.95 486.153 1709.91 484.067 1704.59 484 1697.99 484 1691.45 485.984 1686.05 489.956 1681.78 493.924 1677.51 498.964 1675.35 505.073 1675.28ZM501.007 1659C508.95 1659 509.124 1665.11 512.404 1665.11 513.757 1665.11 514.438 1664.36 514.801 1663.16 515.047 1662.36 515.786 1661.8 516.637 1661.8L520.439 1661.8C521.685 1661.8 522.613 1662.96 522.309 1664.15 521.038 1669.13 517.97 1672.41 512.486 1672.41 504.804 1672.41 504.717 1666.3 501.263 1666.3L501.268 1666.3C500.205 1666.3 499.316 1666.7 498.697 1668.3 498.412 1669.03 497.702 1669.52 496.9 1669.52L492.914 1669.52C491.677 1669.52 490.764 1668.38 491.04 1667.2 492.286 1661.83 495.61 1659 501.007 1659Z" fill="#2242D5" fill-rule="evenodd"/><path d="M534 1698C534 1685.07 543.12 1676 555.958 1676 568.795 1676 578 1685.07 578 1698 578 1710.93 568.964 1720 556.126 1720 543.289 1720 534 1710.93 534 1698ZM566.6 1698C566.6 1691.12 562.208 1686.25 555.958 1686.25 549.707 1686.25 545.4 1691.12 545.4 1698 545.4 1704.89 549.792 1709.75 556.126 1709.75 562.461 1709.75 566.6 1704.89 566.6 1698Z" fill="#2242D5" fill-rule="evenodd"/><path d="M19.2533 16.2459C12.6806 15.5424 7.17601 14.2709 2.60253 12.377L-0.0539183 11.2677 0.000824549 6.80367 0.0829926 2.3396 2.41084 1.17624C3.69796 0.526924 5.09467-0.0682952 5.50544-0.149442 6.24488-0.311772 6.27227-0.311772 6.08054 0.743352L5.91624 1.79851 7.66895 2.63721C12.8723 5.18038 21.4442 6.50606 32.6999 6.50606 43.846 6.50606 52.1988 5.42389 58.9632 3.09715 60.0038 2.74544 60.9624 2.3396 61.0719 2.2314 61.3731 1.93379 61.4005 0.797485 61.154 0.202266 60.9897-0.203576 61.291-0.149442 63.3723 0.581022 64.7142 1.04096 66.0562 1.58208 66.3574 1.77146 67.2064 2.2855 67.5898 3.85469 67.7815 7.37184L67.9458 10.5372 66.2205 11.6195C62.1947 14.1897 54.9648 15.8942 45.2701 16.5164 38.4784 16.9493 24.4567 16.814 19.2533 16.2459Z" fill="#FF7F05" fill-rule="evenodd" transform="matrix(1 -1.22465e-16 -1.22465e-16 -1 136 1571)"/><path d="M19.6459 141.594C18.3197 141.069 16.2751 140.792 11.136 140.515 4.31145 140.156 2.18398 139.575 0.747209 137.667 0.222257 137.003 0.0288626 136.394 0.0288626 135.565L0.0288626 134.403 1.24457 134.569C2.98522 134.845 3.51017 134.569 4.00753 133.241 5.44426 129.286 5.66529 125.331 5.14033 114.489 4.61538 103.508 4.53248 44.8441 5.05743 29.0234 5.30613 20.9471 5.30613 17.8216 5.05743 14.9175 4.69828 11.0176 4.14566 8.33471 3.45494 7.25604 3.06812 6.6752 2.90232 6.61989 1.49323 6.81349L-0.0540361 7.0071 0.166991 5.65183C0.277523 4.87738 0.609081 4.01997 0.94064 3.66042 2.21161 2.30511 6.27314 0.977503 11.4951 0.23074 14.8383-0.239462 33.6817-0.239462 37.3289 0.23074 43.656 1.0605 49.3201 2.63702 50.4253 3.85402 50.7569 4.21358 50.8674 4.76674 50.8398 5.73479L50.7845 7.11774 49.7898 6.89645C48.0215 6.50924 47.1097 7.50495 46.8335 10.1602 46.7506 11.0453 46.6124 35.6062 46.5572 64.7307 46.4743 93.8553 46.3914 120.242 46.3638 123.367 46.3361 128.373 46.5848 131.416 47.165 133.38 47.3308 133.988 49.182 134.68 50.1214 134.514 50.895 134.348 51.0055 134.569 50.9226 135.952 50.8121 137.362 50.5358 137.777 49.2649 138.413 46.0598 140.045 40.4234 141.179 33.5989 141.622 28.0453 141.981 20.5577 141.954 19.6459 141.594ZM21.1103 136.975 21.8286 136.228 22.1049 73.3049C22.2707 36.5466 22.2707 9.49637 22.1326 8.2794 21.8286 5.70714 21.3037 4.35187 20.3643 3.74337 19.7288 3.32851 19.5077 3.32851 18.4855 3.63273 17.104 4.07528 16.7724 4.62847 16.1369 7.53261 15.612 9.88361 15.6396 7.72621 15.9159 62.1032 16.054 89.9831 16.0264 103.591 15.7777 112.58 15.5291 121.652 15.5291 125.856 15.7501 128.539 16.0817 132.743 16.6619 135.592 17.4355 136.865 17.9052 137.639 18.1263 137.75 19.1762 137.75 20.1156 137.75 20.53 137.584 21.1103 136.975ZM34.1791 137.169C34.7041 136.754 35.0908 134.762 35.4224 130.973 35.6711 128.373 35.6711 120.684 35.4224 101.157 35.2566 86.6641 35.1185 59.199 35.1185 40.1145 35.1185 21.0301 35.008 5.26459 34.8974 5.09864 34.483 4.43483 32.7147 3.60507 31.7477 3.60507 30.5043 3.60507 30.1175 4.21358 29.4268 7.11774 29.04 8.80491 28.9847 15.1941 28.9847 70.1242 28.9847 136.477 28.9294 133.407 30.4491 136.56L31.0569 137.805 32.466 137.611C33.2397 137.528 34.0133 137.307 34.1791 137.169ZM11.8267 135.62C12.8214 133.186 13.0977 130.392 13.07 122.261 13.07 117.918 12.9319 111.695 12.7661 108.431 12.2688 98.502 12.3517 39.3954 12.9043 26.7001 13.374 15.8302 13.2358 10.6857 12.3793 6.95179 12.0478 5.45823 12.0201 5.43054 10.4729 4.87738 8.62168 4.21358 8.29012 4.37953 7.65464 6.31564 6.88099 8.66661 6.63233 12.6218 6.74286 20.062 6.82576 24.0172 7.01915 51.5099 7.15732 81.16 7.37834 121.237 7.54411 135.288 7.79277 135.869 8.09669 136.588 8.20722 136.643 9.75448 136.643 11.3846 136.643 11.3846 136.643 11.8267 135.62ZM43.6008 136.256C43.7942 136.09 44.3191 47.1675 44.3191 17.711 44.3191 8.00281 44.1258 6.06669 42.993 5.07099 42.164 4.35187 40.8655 4.24123 40.2852 4.84973 39.705 5.40289 39.0695 7.4773 38.6827 9.96657 38.3235 12.4005 38.3235 10.5198 38.5722 63.0712 38.7104 91.6703 38.6827 106.772 38.4617 113.548 38.0196 126.686 38.4617 132.909 39.9813 135.869 40.3957 136.671 40.4786 136.699 41.9154 136.588 42.7443 136.505 43.4903 136.367 43.6008 136.256Z" fill="#FF7F05" fill-rule="evenodd" transform="matrix(1 -1.22465e-16 -1.22465e-16 -1 144 1711)"/><path d="M61.2739 17.0837C61.4113 16.246 61.3014 15.9109 60.7793 15.3524 59.955 14.4588 58.4438 13.649 56.9051 13.3139 54.8718 12.8391 46.2441 11.6384 42.9469 11.3312 34.4566 10.5772 22.3669 11.4987 10.964 13.7606 7.33711 14.4588 7.11727 14.5425 6.65019 15.3524 6.34794 15.8271 6.12814 16.5531 6.12814 16.9999 6.12814 18.089 5.49617 17.9773 2.50118 16.4415L-0.0541326 15.1011-0.0541326 10.4934-0.0541326 5.8858 1.73185 4.99217C3.90251 3.90312 8.62849 2.31138 11.3762 1.72497 18.1904 0.300785 28.2194-0.313575 36.7097 0.133236 48.8269 0.803434 56.3556 2.03212 64.9283 4.79671 67.5936 5.63445 67.7309 5.91371 67.8958 10.3538 68.0057 13.5093 67.9782 13.7606 67.3463 14.6822 66.7143 15.6316 63.6094 17.4747 61.8509 17.8935 61.1365 18.089 61.109 18.0611 61.2739 17.0837Z" fill="#FF7F05" fill-rule="evenodd" transform="matrix(1 -1.22465e-16 -1.22465e-16 -1 136 1726)"/><path d="M237.647 1577.5 237.647 1599.2 250.695 1599.2C253.75 1599.2 256.257 1598.18 258.216 1596.15 260.175 1594.12 261.154 1591.5 261.154 1588.3 261.154 1585.1 260.075 1582.5 257.917 1580.5 255.759 1578.5 252.986 1577.5 249.6 1577.5ZM225.347 1565 226.349 1565 227.832 1565 233.699 1565 236.184 1565 249.898 1565C254.813 1565 259.162 1565.98 262.947 1567.95 266.732 1569.92 269.688 1572.65 271.812 1576.15 273.937 1579.65 275 1583.7 275 1588.3 275 1592.83 273.971 1596.87 271.912 1600.4 269.854 1603.93 267.031 1606.72 263.445 1608.75 259.859 1610.78 255.709 1611.8 250.994 1611.8L237.647 1611.8 237.531 1613.48 237.531 1633.65C237.531 1634.4 236.926 1635 236.184 1635L233.699 1635 227.832 1635 225.347 1635C224.601 1635 224 1634.39 224 1633.65L224 1566.35C224 1565.6 224.605 1565 225.347 1565Z" fill="#FF7F05" fill-rule="evenodd"/><path d="M295 1582C295 1585.31 292.314 1588 289 1588 285.686 1588 283 1585.31 283 1582 283 1578.69 285.686 1576 289 1576 292.314 1576 295 1578.69 295 1582Z" fill="#FF7F05" fill-rule="evenodd"/><path d="M294.968 1596.44C294.968 1595.65 294.317 1595 293.514 1595L285.22 1595C285.22 1595 282.454 1595 282.454 1595 281.651 1595 281 1595.65 281 1596.45L281 1602.86C281 1603.66 281.651 1604.3 282.454 1604.3L283.766 1604.3C284.568 1604.3 285.22 1604.95 285.22 1605.75L285.22 1632.56C285.22 1633.35 285.871 1634 286.674 1634L293.514 1634C294.317 1634 294.968 1633.35 294.968 1632.56L294.968 1631.8 295 1631.8 295 1603.54 294.968 1603.54 294.968 1596.44Z" fill="#FF7F05" fill-rule="evenodd"/><path d="M305.921 1576 313.157 1576C314.176 1576 315 1576.83 315 1577.85L314.921 1632.16C314.921 1633.17 314.097 1634 313.079 1634L305.842 1634C304.824 1634 304 1633.17 304 1632.15L304.079 1577.84C304.079 1576.83 304.903 1576 305.921 1576Z" fill="#FF7F05" fill-rule="evenodd"/><path d="M361.508 1594.04 354.604 1594.04C353.782 1594.04 353.116 1594.7 353.116 1595.51L353.116 1597.67C353.116 1597.85 352.88 1597.93 352.767 1597.78 351.695 1596.38 350.165 1595.24 348.173 1594.37 345.955 1593.4 343.454 1592.94 340.668 1593.01 334.966 1593.07 330.262 1595.1 326.559 1599.11 322.852 1603.12 321 1608.19 321 1614.33 321.063 1620.53 323.01 1625.53 326.844 1629.32 330.676 1633.1 335.318 1635 340.766 1635 343.934 1635 346.658 1634.36 348.939 1633.07 350.805 1632.02 352.077 1630.94 352.755 1629.83 352.86 1629.66 353.119 1629.72 353.119 1629.92L353.119 1632.31C353.119 1633.12 353.785 1633.78 354.607 1633.78L361.511 1633.78C362.333 1633.78 363 1633.12 363 1632.31L363 1595.51C363 1594.7 362.333 1594.04 361.511 1594.04ZM352.83 1614.71C352.83 1617.53 351.785 1619.97 349.695 1622.04 347.748 1623.96 345.39 1624.99 342.621 1625.12 339.81 1625.26 336.985 1624.34 334.865 1622.51 332.4 1620.38 331.17 1617.54 331.17 1613.96 331.17 1610.76 332.2 1608.12 334.258 1606.02 336.315 1603.92 338.896 1602.87 342.002 1602.87 345.107 1602.87 347.688 1603.87 349.745 1605.88 351.803 1607.88 352.833 1610.39 352.833 1613.39L352.833 1614.71Z" fill="#FF7F05" fill-rule="evenodd"/><path d="M395.553 1594 392.74 1594C386.203 1594 382.469 1598.71 380.828 1601.52 380.732 1601.68 380.481 1601.61 380.481 1601.42L380.481 1595.48C380.481 1594.66 379.835 1594 379.034 1594L372.447 1594C371.647 1594 371 1594.66 371 1595.48L371 1632.52C371 1633.34 371.647 1634 372.447 1634L379.034 1634C379.835 1634 380.481 1633.34 380.481 1632.52L380.481 1614.14C380.481 1603.71 395.553 1603.55 395.553 1603.55 396.353 1603.55 397 1602.89 397 1602.07L397 1595.48C397 1594.66 396.353 1594 395.553 1594Z" fill="#FF7F05" fill-rule="evenodd"/></g></svg>