<svg width="1410" height="524" xmlns="http://www.w3.org/2000/svg" xmlns:xlink="http://www.w3.org/1999/xlink" xml:space="preserve" overflow="hidden"><defs><clipPath id="clip0"><rect x="1189" y="906" width="1410" height="524"/></clipPath></defs><g clip-path="url(#clip0)" transform="translate(-1189 -906)"><path d="M1190.5 941.917C1190.5 922.909 1205.91 907.5 1224.92 907.5L2562.08 907.5C2581.09 907.5 2596.5 922.909 2596.5 941.917L2596.5 1394.08C2596.5 1413.09 2581.09 1428.5 2562.08 1428.5L1224.92 1428.5C1205.91 1428.5 1190.5 1413.09 1190.5 1394.08Z" stroke="#4A4A4A" stroke-width="3.4375" stroke-miterlimit="8" fill="#252526" fill-rule="evenodd"/><path d="M1224.69 907 2560.31 907C2579.47 907 2595 922.53 2595 941.688L2595 997 1190 997 1190 941.688C1190 922.53 1205.53 907 1224.69 907Z" fill="#333333" fill-rule="evenodd"/><text fill="#CCCCCC" font-family="Segoe UI,Segoe UI_MSFontService,sans-serif" font-weight="400" font-size="41" transform="matrix(1 0 0 1 1831.06 970)">1</text><text fill="#CCCCCC" font-family="Segoe UI,Segoe UI_MSFontService,sans-serif" font-weight="400" font-size="41" transform="matrix(1 0 0 1 1853.4 970)">/6</text><path d="M1192.5 1000.5 2596.5 1000.5 2596.5 1117.5 1192.5 1117.5Z" stroke="#3794FF" stroke-width="3.4375" stroke-miterlimit="8" fill="#252526" fill-rule="evenodd"/><text fill="#D4D4D4" font-family="Segoe UI,Segoe UI_MSFontService,sans-serif" font-weight="400" font-size="41" transform="matrix(1 0 0 1 1232.91 1071)">chore</text><path d="M1246.63 941.346 1246.63 945.922 1242.86 949.633 1278.85 949.633 1278.85 953.776 1242.92 953.776 1246.63 957.424 1246.63 962 1237 951.735 1237 951.611 1246.63 941.346ZM2539.34 939 2549 949.265 2549 949.389 2539.34 959.654 2539.34 955.078 2542.99 951.43 2507.12 951.43 2507.12 947.287 2543.05 947.287 2539.34 943.576 2539.34 939Z" fill="#FFFFFF" fill-rule="evenodd"/><text fill="#CCCCCC" font-family="Segoe UI,Segoe UI_MSFontService,sans-serif" font-weight="700" font-size="41" transform="matrix(1 0 0 1 1226.04 1323)">build </text><text fill="#CCCCCC" font-family="Segoe UI,Segoe UI_MSFontService,sans-serif" font-weight="400" font-size="41" transform="matrix(1 0 0 1 1337.19 1323)">Builds</text><text fill="#CCCCCC" font-family="Segoe UI,Segoe UI_MSFontService,sans-serif" font-weight="400" font-size="41" transform="matrix(1 0 0 1 1226.04 1373)">Changes that affect the build system or external dependencies…</text><path d="M1189 1125 2594 1125 2594 1266 1189 1266Z" fill="#04395E" fill-rule="evenodd"/><text fill="#CCCCCC" font-family="Segoe UI,Segoe UI_MSFontService,sans-serif" font-weight="700" font-size="41" transform="matrix(1 0 0 1 1227.41 1196)">chore </text><text fill="#CCCCCC" font-family="Segoe UI,Segoe UI_MSFontService,sans-serif" font-weight="400" font-size="41" transform="matrix(1 0 0 1 1347.73 1196)">Chrores</text><text fill="#CCCCCC" font-family="Segoe UI,Segoe UI_MSFontService,sans-serif" font-weight="400" font-size="41" transform="matrix(1 0 0 1 1227.41 1246)">Other changes that don’t modify </text><text fill="#CCCCCC" font-family="Segoe UI,Segoe UI_MSFontService,sans-serif" font-weight="400" font-size="41" transform="matrix(1 0 0 1 1832.99 1246)">src</text><text fill="#CCCCCC" font-family="Segoe UI,Segoe UI_MSFontService,sans-serif" font-weight="400" font-size="41" transform="matrix(1 0 0 1 1895.44 1246)">or test files.</text></g></svg>