<svg width="1410" height="391" xmlns="http://www.w3.org/2000/svg" xmlns:xlink="http://www.w3.org/1999/xlink" xml:space="preserve" overflow="hidden"><g transform="translate(-1189 -906)"><path d="M1190.5 933.131C1190.5 918.975 1201.98 907.5 1216.13 907.5L2570.87 907.5C2585.02 907.5 2596.5 918.975 2596.5 933.131L2596.5 1269.87C2596.5 1284.02 2585.02 1295.5 2570.87 1295.5L1216.13 1295.5C1201.98 1295.5 1190.5 1284.02 1190.5 1269.87Z" stroke="#4A4A4A" stroke-width="3.4375" stroke-miterlimit="8" fill="#252526" fill-rule="evenodd"/><path d="M1210.51 907 2574.49 907C2585.82 907 2595 916.181 2595 927.507L2595 997 1190 997 1190 927.507C1190 916.181 1199.18 907 1210.51 907Z" fill="#333333" fill-rule="evenodd"/><text fill="#CCCCCC" font-family="Segoe UI,Segoe UI_MSFontService,sans-serif" font-weight="400" font-size="41" transform="matrix(1 0 0 1 1831.06 970)">6</text><text fill="#CCCCCC" font-family="Segoe UI,Segoe UI_MSFontService,sans-serif" font-weight="400" font-size="41" transform="matrix(1 0 0 1 1853.4 970)">/6</text><path d="M1192.5 1000.5 2596.5 1000.5 2596.5 1117.5 1192.5 1117.5Z" stroke="#3794FF" stroke-width="3.4375" stroke-miterlimit="8" fill="#252526" fill-rule="evenodd"/><text fill="#D4D4D4" font-family="Segoe UI,Segoe UI_MSFontService,sans-serif" font-weight="400" font-size="41" transform="matrix(1 0 0 1 1232.91 1071)">List any breaking changes or issues closed by this change.</text><text fill="#AAAAAA" font-family="Segoe UI,Segoe UI_MSFontService,sans-serif" font-weight="400" font-size="41" transform="matrix(1 0 0 1 1227.41 1196)">List any breaking changes or issues closed by this change. (Press 'Enter' </text><text fill="#AAAAAA" font-family="Segoe UI,Segoe UI_MSFontService,sans-serif" font-weight="400" font-size="41" transform="matrix(1 0 0 1 1227.41 1246)">to confirm or 'Escape’ to cancel)</text><path d="M1246.63 941.346 1246.63 945.922 1242.86 949.633 1278.85 949.633 1278.85 953.776 1242.92 953.776 1246.63 957.424 1246.63 962 1237 951.735 1237 951.611 1246.63 941.346ZM2539.34 939 2549 949.265 2549 949.389 2539.34 959.654 2539.34 955.078 2542.99 951.43 2507.12 951.43 2507.12 947.287 2543.05 947.287 2539.34 943.576 2539.34 939Z" fill="#FFFFFF" fill-rule="evenodd"/></g></svg>