<svg width="1411" height="391" xmlns="http://www.w3.org/2000/svg" xmlns:xlink="http://www.w3.org/1999/xlink" xml:space="preserve" overflow="hidden"><defs><clipPath id="clip0"><rect x="1189" y="998" width="1411" height="391"/></clipPath></defs><g clip-path="url(#clip0)" transform="translate(-1189 -998)"><path d="M1190.5 1025.13C1190.5 1010.98 1201.98 999.5 1216.13 999.5L2572.87 999.5C2587.02 999.5 2598.5 1010.98 2598.5 1025.13L2598.5 1361.87C2598.5 1376.02 2587.02 1387.5 2572.87 1387.5L1216.13 1387.5C1201.98 1387.5 1190.5 1376.02 1190.5 1361.87Z" stroke="#4A4A4A" stroke-width="3.4375" stroke-miterlimit="8" fill="#252526" fill-rule="evenodd"/><path d="M1210.51 998 2575.49 998C2586.82 998 2596 1007.18 2596 1018.51L2596 1088 1190 1088 1190 1018.51C1190 1007.18 1199.18 998 1210.51 998Z" fill="#333333" fill-rule="evenodd"/><text fill="#CCCCCC" font-family="Segoe UI,Segoe UI_MSFontService,sans-serif" font-weight="400" font-size="41" transform="matrix(1 0 0 1 1831.55 1061)">5</text><text fill="#CCCCCC" font-family="Segoe UI,Segoe UI_MSFontService,sans-serif" font-weight="400" font-size="41" transform="matrix(1 0 0 1 1853.89 1061)">/6</text><path d="M1192.5 1091.5 2598.5 1091.5 2598.5 1208.5 1192.5 1208.5Z" stroke="#3794FF" stroke-width="3.4375" stroke-miterlimit="8" fill="#252526" fill-rule="evenodd"/><text fill="#D4D4D4" font-family="Segoe UI,Segoe UI_MSFontService,sans-serif" font-weight="400" font-size="41" transform="matrix(1 0 0 1 1232.92 1163)">Provide a longer description of the change.</text><text fill="#AAAAAA" font-family="Segoe UI,Segoe UI_MSFontService,sans-serif" font-weight="400" font-size="41" transform="matrix(1 0 0 1 1227.42 1288)">Provide a longer description of the change. (Press 'Enter' to confirm or </text><text fill="#AAAAAA" font-family="Segoe UI,Segoe UI_MSFontService,sans-serif" font-weight="400" font-size="41" transform="matrix(1 0 0 1 1227.42 1338)">'Escape' to cancel)</text><path d="M1246.64 1033.24 1246.64 1037.62 1242.86 1041.17 1278.89 1041.17 1278.89 1045.13 1242.92 1045.13 1246.64 1048.62 1246.64 1053 1237 1043.18 1237 1043.06 1246.64 1033.24ZM2540.33 1031 2550 1040.82 2550 1040.94 2540.33 1050.76 2540.33 1046.38 2543.99 1042.89 2508.08 1042.89 2508.08 1038.93 2544.05 1038.93 2540.33 1035.38 2540.33 1031Z" fill="#FFFFFF" fill-rule="evenodd"/></g></svg>