<?xml version="1.0" encoding="UTF-8"?>
<svg id="Camada_1" xmlns="http://www.w3.org/2000/svg" version="1.1" viewBox="0 0 1490 1023">
  <!-- Generator: Adobe Illustrator 29.6.1, SVG Export Plug-In . SVG Version: 2.1.1 Build 9)  -->
  <defs>
    <style>
      .st0 {
        stroke: #3794ff;
      }

      .st0, .st1, .st2, .st3, .st4 {
        fill-rule: evenodd;
      }

      .st0, .st2 {
        fill: #252526;
        stroke-miterlimit: 8;
        stroke-width: 3.4px;
      }

      .st5 {
        fill: #d4d4d4;
      }

      .st5, .st6, .st7, .st8, .st9 {
        isolation: isolate;
      }

      .st5, .st6, .st8, .st9 {
        font-size: 41px;
      }

      .st5, .st6, .st9 {
        font-family: SegoeUI, 'Segoe UI';
      }

      .st6, .st8 {
        fill: #ccc;
      }

      .st1 {
        fill: #fff;
      }

      .st2 {
        stroke: #4a4a4a;
      }

      .st8 {
        font-family: SegoeUI-Bold, 'Segoe UI';
        font-weight: 700;
      }

      .st3 {
        fill: #333;
      }

      .st4 {
        fill: #04395e;
      }

      .st9 {
        fill: #aaa;
      }
    </style>
  </defs>
  <path class="st2" d="M41.9,39.6c0,0,.2-.2.2-.2,2.9-3.1,7.1-4.9,11.4-4.9,89.3,0,1236.7.2,1379.5.2,8,0,14.6,6.5,14.6,14.6v933.4c-.1,3.3-2.8,5.9-6.1,5.9l-1396.7-.2c-3.3,0-5.9-2.6-5.9-5.9,0-76.6.1-873.4.1-935.2,0-2.8,1-5.6,2.9-7.6Z"/>
  <path class="st3" d="M39,124.5V49.7c0-10.2,7.2-15.2,16.1-15.2h1373.9c8.9,0,18.7,7.4,18.7,16.3v72.6c0,.6,1.8,1.2,0,1.2H39"/>
  <g class="st7">
    <text class="st6" transform="translate(680.6 97)"><tspan x="0" y="0">2</tspan></text>
  </g>
  <g class="st7">
    <text class="st6" transform="translate(702.9 97)"><tspan x="0" y="0">/6</tspan></text>
  </g>
  <path class="st0" d="M41.5,127.5h1406v117H41.5v-117Z"/>
  <g class="st7">
    <text class="st5" transform="translate(81.9 198)"><tspan x="0" y="0">project</tspan></text>
  </g>
  <path class="st4" d="M44,262h1392v138H44v-138Z"/>
  <g class="st7">
    <text class="st8" transform="translate(77.1 322)"><tspan x="0" y="0">project</tspan></text>
  </g>
  <g class="st7">
    <text class="st9" transform="translate(77.1 373)"><tspan x="0" y="0">From workspace configuration or your personal settings.json.</tspan></text>
  </g>
  <g class="st7">
    <text class="st8" transform="translate(79.4 476)"><tspan x="0" y="0">No scope</tspan></text>
  </g>
  <g class="st7">
    <text class="st9" transform="translate(79.4 528)"><tspan x="0" y="0">No scope.</tspan></text>
  </g>
  <path class="st1" d="M95.6,69.2v4.4l-3.8,3.6h36v4h-36l3.7,3.5v4.4l-9.6-9.8h0c0,0,9.6-9.9,9.6-9.9v-.2ZM1389.3,67l9.7,9.8h0c0,0-9.7,9.9-9.7,9.9v-4.4l3.7-3.5h-35.9v-4h36l-3.7-3.6v-4.4.2Z"/>
  <g class="st7">
    <text class="st8" transform="translate(81.4 621)"><tspan x="0" y="0">New</tspan></text>
  </g>
  <g class="st7">
    <text class="st8" transform="translate(180.5 621)"><tspan x="0" y="0">scope</tspan></text>
  </g>
  <g class="st7">
    <text class="st9" transform="translate(81.4 673)"><tspan x="0" y="0">Add a new, persistently saved, scope. (You can manage scopes in </tspan></text>
    <text class="st9" transform="translate(81.4 722.2)"><tspan x="0" y="0">workspace `setings.jason`.</tspan></text>
  </g>
  <g class="st7">
    <text class="st8" transform="translate(79.4 821)"><tspan x="0" y="0">New scope (only use once)</tspan></text>
  </g>
  <g class="st7">
    <text class="st9" transform="translate(79.4 873)"><tspan x="0" y="0">Use a new scope. (The scope will not be persisted added in user or </tspan></text>
    <text class="st9" transform="translate(79.4 922.2)"><tspan x="0" y="0">workspace `settings.json` De...</tspan></text>
  </g>
</svg>